<?xml version="1.0" encoding="utf-8"?>
<!-- Generator: Adobe Illustrator 23.0.1, SVG Export Plug-In . SVG Version: 6.00 Build 0)  -->
<svg version="1.1" id="octagon_1_" xmlns="http://www.w3.org/2000/svg" xmlns:xlink="http://www.w3.org/1999/xlink" x="0px" y="0px"
	 viewBox="0 0 119.4 116.4" style="enable-background:new 0 0 119.4 116.4;" xml:space="preserve">
<style type="text/css">
	.st0{fill:none;stroke:#FFFFFF;stroke-width:1.5;stroke-miterlimit:10;}
</style>
<path class="st0" d="M107.2,48.3l-0.2-0.4l0,0l-4.8-21.2l0,0l-0.1-0.1v-0.1l-0.1-0.1l-0.1-0.1l-0.1,0.1L60.3,6.5l-41.5,20l-0.1-0.1
	l-0.1,0.1l-0.1,0.1v0.1l-0.1,0.1l0,0l-4.9,21.3l-0.1,0.1h0.1L8.3,71.8l28.7,36v0.1h0.1l0.1,0.1h23h0.4h22.8l0,0h0.4v-0.4l28.4-35.8
	l-5.3-23.3L107.2,48.3z M60.3,6.9l21.3,10.2L60.3,32.8L39,17.2L60.3,6.9z M37,107.2L8.7,71.6L14,48.4l20.6,15.1l2.4,2.1V107.2z
	 M60.2,107.6H37.4V65.5c0-0.1,0-0.1-0.1-0.1l-2.5-2.1L14.1,48l4.7-21l41.3,30.3L60.2,107.6L60.2,107.6z M60.4,57L19.2,26.7l19.5-9.3
	l21.6,15.8c0.1,0,0.1,0.1,0.1,0.1s0.1,0,0.1-0.1L82,17.4l19.5,9.4L60.4,57z M83.4,65.5c-0.1,0.1-0.1,0.1-0.1,0.1v41.9l-0.1,0.1H60.6
	V57.4l41.1-30.3l4.8,21.2L85.9,63.4L83.4,65.5z M111.9,71.6l-28.2,35.3V65.7l2.4-2.1l20.4-15L111.9,71.6z"/>
</svg>
