<?xml version="1.0" encoding="utf-8"?>
<!-- Generator: Adobe Illustrator 23.0.1, SVG Export Plug-In . SVG Version: 6.00 Build 0)  -->
<svg version="1.1" id="octagon" xmlns="http://www.w3.org/2000/svg" xmlns:xlink="http://www.w3.org/1999/xlink" x="0px" y="0px"
	 viewBox="0 0 153.6 150.1" style="enable-background:new 0 0 153.6 150.1;" xml:space="preserve">
<style type="text/css">
	.st0{fill:none;stroke:#FFFFFF;stroke-width:0.75;stroke-miterlimit:10;}
</style>
<path class="st0" d="M145.5,63l-0.1-0.2L138,30.5v-0.3h-0.2l-60.2-29l-0.5-0.7l-0.3,0.3l0,0L15.5,30.3l-0.1,0.4h-0.1l0,0l-15,65.8
	l20.9,26.2l0.1,0.1l0,0l21.4,26.9h68l42.4-53.1L145.5,63L145.5,63z M136.5,30.2L101,30.3v0.3L78.5,2.2L136.5,30.2z M136.8,30.8
	L111,43.2l-9.8-12.3L136.8,30.8z M76.8,1.4l0.5,0.2l33.2,41.8L80.6,57.8L47.2,15.7L76.8,1.4z M46.7,15.9L80.1,58L49.5,72.8
	L16.1,30.7L46.7,15.9z M15.9,31.3l27.2,34.3H8L15.9,31.3z M7.9,66.2h35.7L49,73L1.1,96L7.9,66.2z M1.2,96.7L137.6,31l7.2,31.6
	L21.5,122.1L1.2,96.7z M110.5,149.1H43.6l78.8-37.8l9.1,11.4l0.3-0.3L110.5,149.1z M131.8,122.4l-9-11.3l29.1-14L131.8,122.4z
	 M152.5,96.2l-30,14.4l0,0l-0.1,0.1l-79.6,38.2l-21-26.3L145,63.2L152.5,96.2z"/>
</svg>
