<?xml version="1.0" encoding="utf-8"?>
<!-- Generator: Adobe Illustrator 23.0.1, SVG Export Plug-In . SVG Version: 6.00 Build 0)  -->
<svg version="1.1" id="octagon" xmlns="http://www.w3.org/2000/svg" xmlns:xlink="http://www.w3.org/1999/xlink" x="0px" y="0px"
	 viewBox="0 0 119.4 116.4" style="enable-background:new 0 0 119.4 116.4;" xml:space="preserve">
<style type="text/css">
	.st0{fill:none;stroke:#FFFFFF;stroke-width:1.5;stroke-miterlimit:10;}
</style>
<path class="st0" d="M98.2,29.7l0.1-0.1l-0.1-0.1v-0.1L58.4,10.7l-0.1-0.3c0-0.1-0.1-0.1-0.2-0.1l0,0c-0.1,0-0.1,0.1-0.2,0.1
	l-0.1,0.1L18,29.4v0.1l-0.1,0.1l0.1,0.1L8.2,71.9l0,0V72h0.1l27.6,33.8v0.1H36l0.1,0.1h22l0,0c0,0.1,0.1,0.1,0.2,0.1
	s0.1-0.1,0.2-0.1l0,0h22l0.1-0.1h0.1v-0.1L108,72h0.1v-0.1l0,0L98.2,29.7z M97.8,29.7L73.5,76l-15-64.9L97.8,29.7z M57.8,11.1
	l-15.2,65L18.3,29.7L57.8,11.1z M18.2,30.2l24.2,46.3L8.5,71.8L18.2,30.2z M35.9,105.3L8.7,72.1l33.7,4.7L35.9,105.3z M36.1,105.6
	l6.7-28.5l14.9,28.5H36.1z M58.1,105.5l-15.2-29l15.3-65.1l15.1,65.1L58.1,105.5z M58.5,105.6l14.9-28.5l6.6,28.5H58.5z M80.4,105.3
	l-6.7-28.6l33.7-4.5L80.4,105.3z M73.8,76.4L98,30.2l9.7,41.6L73.8,76.4z"/>
</svg>
