<?xml version="1.0" encoding="utf-8"?>
<!-- Generator: Adobe Illustrator 23.0.1, SVG Export Plug-In . SVG Version: 6.00 Build 0)  -->
<svg version="1.1" id="octagon" xmlns="http://www.w3.org/2000/svg" xmlns:xlink="http://www.w3.org/1999/xlink" x="0px" y="0px"
	 viewBox="0 0 153.6 149.7" style="enable-background:new 0 0 153.6 149.7;" xml:space="preserve">
<style type="text/css">
	.st0{fill:none;stroke:#FFFFFF;stroke-width:0.75;stroke-miterlimit:10;}
</style>
<path class="st0" d="M145.6,61.7l-0.3-0.5l0,0l-7.1-31.1l0,0l-0.1-0.1v-0.2l-0.1-0.1l-0.1-0.1l-0.1,0.1l-61-29.3L15.9,29.8l-0.1-0.1
	l-0.1,0.1l-0.1,0.1v0.2l-0.1,0.1l0,0L8.3,61.5l-0.1,0.2h0.1L0.4,96.2l42.2,52.9v0.2h0.1l0.1,0.1h33.8h0.6h33.5l0,0h0.6v-0.6
	l41.9-52.6l-7.8-34.3L145.6,61.7z M76.8,1.1l31.2,15L76.8,39L45.6,16.1L76.8,1.1z M42.6,148.2L1,96l7.8-34L39,84.2l3.6,3V148.2z
	 M76.6,148.8H43.2V87.1c0-0.1,0-0.2-0.1-0.2l-3.7-3.1L8.9,61.4l7-30.9L76.5,75L76.6,148.8L76.6,148.8z M76.9,74.6L16.4,30.1L45,16.4
	l31.7,23.2c0.1,0,0.1,0.1,0.2,0.1s0.1,0,0.2-0.1l31.6-23.2l28.6,13.8L76.9,74.6z M110.7,87c-0.1,0.1-0.1,0.1-0.1,0.2v61.4l-0.1,0.2
	H77.2V75.1l60.4-44.5l7.1,31.1l-30.2,22.2L110.7,87z M152.5,96l-41.3,51.8V87.3l3.6-3l30-22.1L152.5,96z"/>
</svg>
