<?xml version="1.0" encoding="utf-8"?>
<!-- Generator: Adobe Illustrator 23.0.1, SVG Export Plug-In . SVG Version: 6.00 Build 0)  -->
<svg version="1.1" id="octagon" xmlns="http://www.w3.org/2000/svg" xmlns:xlink="http://www.w3.org/1999/xlink" x="0px" y="0px"
	 viewBox="0 0 153.6 150.2" style="enable-background:new 0 0 153.6 150.2;" xml:space="preserve">
<style type="text/css">
	.st0{fill:none;stroke:#FFFFFF;stroke-width:0.75;stroke-miterlimit:10;}
</style>
<path class="st0" d="M138.1,30.6l0.1-0.2l-0.2-0.1l0-0.1L77.3,1l-0.1-0.4c0-0.1-0.1-0.2-0.3-0.2l0,0c-0.1,0-0.2,0.1-0.3,0.2
	l-0.1,0.2l-61,29.4l0,0.1l-0.2,0.1l0.1,0.2l-15,65.9l0,0l0,0.2l0.2,0l42,52.7l0,0.1l0.1,0l0.1,0.1h33.7l0,0c0,0.1,0.1,0.2,0.3,0.2
	c0.1,0,0.2-0.1,0.3-0.2l0,0h33.7l0.1-0.1l0.1,0l0-0.1l42-52.7l0.2,0l0-0.2l0,0L138.1,30.6z M137.5,30.6l-37.1,72.3L77.4,1.7
	L137.5,30.6z M76.4,1.6L53.2,103L16.1,30.6L76.4,1.6z M15.9,31.4l37,72.2L1.1,96.2L15.9,31.4z M42.8,148.7L1.4,96.9l51.5,7.3
	L42.8,148.7z M43.3,149.1l10.2-44.4l22.8,44.4H43.3z M76.8,148.9l-23.2-45.2L76.9,2L100,103.7L76.8,148.9z M77.4,149.1l22.8-44.5
	l10.1,44.5H77.4z M110.8,148.7L100.6,104l51.5-7.1L110.8,148.7z M100.8,103.4l36.9-72l14.8,64.9L100.8,103.4z"/>
</svg>
