<?xml version="1.0" encoding="utf-8"?>
<!-- Generator: Adobe Illustrator 23.0.1, SVG Export Plug-In . SVG Version: 6.00 Build 0)  -->
<svg version="1.1" id="octagon" xmlns="http://www.w3.org/2000/svg" xmlns:xlink="http://www.w3.org/1999/xlink" x="0px" y="0px"
	 viewBox="0 0 119.4 116.4" style="enable-background:new 0 0 119.4 116.4;" xml:space="preserve">
<style type="text/css">
	.st0{fill:none;stroke:#FFFFFF;stroke-width:1.5;stroke-miterlimit:10;}
</style>
<path class="st0" d="M106.3,46.7l-0.1-0.2l-6.6-21.7l0-0.2l-0.2,0L56.9,7.7l-0.4-0.4l-0.2,0.2l0,0L15.9,30.6l-0.1,0.3l-0.1,0l0,0
	l-7,45.7l15.6,16.9l0.1,0.1l0,0l15.9,17.3l46.5-3.3l26.4-38.3L106.3,46.7L106.3,46.7z M98.6,24.7l-24.3,1.8l0,0.2L57.6,8.3
	L98.6,24.7z M98.8,25.1l-17,9.7l-7.3-7.9L98.8,25.1z M56.4,7.9L56.8,8l24.7,27L61.7,46.3L36.8,19.2L56.4,7.9z M36.5,19.3l24.8,27.1
	L41.2,58L16.3,30.9L36.5,19.3z M16.2,31.3l20.3,22.1l-23.9,1.7L16.2,31.3z M12.4,55.5l24.4-1.7l4,4.3L9.2,76.2L12.4,55.5z M9.3,76.7
	l90-51.5l6.5,21.3L24.4,93.1L9.3,76.7z M86.5,107.3l-45.7,3.2l52.1-29.6l6.8,7.3l0.2-0.2L86.5,107.3z M99.8,87.9l-6.7-7.2l19.2-10.9
	L99.8,87.9z M112.6,69L92.8,80.4l0,0l0,0.1l-52.6,29.9l-15.7-17l81.3-46.5L112.6,69z"/>
</svg>
