<?xml version="1.0" encoding="utf-8"?>
<!-- Generator: Adobe Illustrator 23.0.1, SVG Export Plug-In . SVG Version: 6.00 Build 0)  -->
<svg version="1.1" id="rectangle" xmlns="http://www.w3.org/2000/svg" xmlns:xlink="http://www.w3.org/1999/xlink" x="0px" y="0px"
	 viewBox="0 0 135 135.2" style="enable-background:new 0 0 135 135.2;" xml:space="preserve">
<style type="text/css">
	.st0{fill:none;stroke:#FFFFFF;stroke-width:1.5;stroke-miterlimit:10;}
</style>
<path class="st0" d="M118.3,102.1V44.9c0-0.1-0.1-0.1-0.1-0.1L68.5,16.1c-0.1-0.1-0.1-0.1-0.2,0L18.7,44.7c-0.1,0.1-0.1,0.1-0.1,0.1
	v57.3c0,0.1,0.1,0.1,0.1,0.1l49.6,28.6h0.1h0.1l49.6-28.6C118.2,102.4,118.3,102.3,118.3,102.1z M68.3,73.3
	c-0.1,0.1-0.1,0.1-0.1,0.1v57.1L18.9,102V45l49.5-28.5l49.3,28.4L68.3,73.3z M117.8,102l-49.2,28.4V73.5l49.2-28.2V102z"/>
</svg>
