<?xml version="1.0" encoding="utf-8"?>
<!-- Generator: Adobe Illustrator 23.0.1, SVG Export Plug-In . SVG Version: 6.00 Build 0)  -->
<svg version="1.1" id="rectangle" xmlns="http://www.w3.org/2000/svg" xmlns:xlink="http://www.w3.org/1999/xlink" x="0px" y="0px"
	 viewBox="0 0 135 155.6" style="enable-background:new 0 0 135 155.6;" xml:space="preserve">
<style type="text/css">
	.st0{fill:none;stroke:#FFFFFF;stroke-width:0.75;stroke-miterlimit:10;}
</style>
<path class="st0" d="M134.6,116.4V39.2c0-0.1-0.1-0.2-0.1-0.2L67.6,0.4c-0.1-0.1-0.2-0.1-0.3,0L0.5,39c-0.1,0.1-0.1,0.1-0.1,0.2
	v77.2c0,0.1,0.1,0.2,0.1,0.2l66.8,38.6c0,0,0.1,0,0.1,0c0,0,0.1,0,0.1,0l66.8-38.6C134.5,116.6,134.6,116.5,134.6,116.4z M67.3,77.4
	c-0.1,0.1-0.1,0.1-0.1,0.2v76.8L0.9,116.2V39.4L67.5,1l66.3,38.3L67.3,77.4z M134,116.2l-66.2,38.2V77.8L134,39.8V116.2z"/>
</svg>
