<?xml version="1.0" encoding="utf-8"?>
<!-- Generator: Adobe Illustrator 23.0.1, SVG Export Plug-In . SVG Version: 6.00 Build 0)  -->
<svg version="1.1" id="triangle" xmlns="http://www.w3.org/2000/svg" xmlns:xlink="http://www.w3.org/1999/xlink" x="0px" y="0px"
	 viewBox="0 0 135 135.2" style="enable-background:new 0 0 135 135.2;" xml:space="preserve">
<style type="text/css">
	.st0{fill:none;stroke:#FFFFFF;stroke-width:0.75;stroke-miterlimit:10;}
</style>
<path class="st0" d="M134.3,0.4H44.1H22.4H0.7c-0.2,0-0.3,0.1-0.3,0.3v133.8c0,0.2,0.1,0.3,0.3,0.3h111.9h0.9h20.8
	c0.2,0,0.3-0.1,0.3-0.3V0.7C134.6,0.5,134.5,0.4,134.3,0.4z M44.4,44.4h46.1v46.3H44.4V44.4z M22.7,0.9h21.2V91
	c0,0.2,0.1,0.3,0.3,0.3h46.4v21.2l-67.9,0V0.9z M112.3,134.2H0.9V0.9h21.2v111.8c0,0.2,0.1,0.3,0.3,0.3l68.2,0v21h0.6v-90
	c0-0.2-0.1-0.3-0.3-0.3H44.4V22.7l67.9,0V134.2z M134,134.2h-20.6h-0.6V22.4c0-0.2-0.1-0.3-0.3-0.3l-68.2,0V0.9H134V134.2z"/>
</svg>
