<?xml version="1.0" encoding="utf-8"?>
<!-- Generator: Adobe Illustrator 23.0.1, SVG Export Plug-In . SVG Version: 6.00 Build 0)  -->
<svg version="1.1" id="rectangle" xmlns="http://www.w3.org/2000/svg" xmlns:xlink="http://www.w3.org/1999/xlink" x="0px" y="0px"
	 viewBox="0 0 135 135" style="enable-background:new 0 0 135 135;" xml:space="preserve">
<style type="text/css">
	.st0{fill:none;stroke:#FFFFFF;stroke-width:0.75;stroke-miterlimit:10;}
</style>
<path class="st0" d="M134.6,0.6C134.6,0.6,134.6,0.6,134.6,0.6C134.6,0.6,134.6,0.6,134.6,0.6c0-0.1,0-0.1-0.1-0.1c0,0,0,0,0,0
	c0,0,0,0,0,0c0,0-0.1-0.1-0.1-0.1c0,0,0,0,0,0c0,0,0,0-0.1,0H0.7c0,0,0,0-0.1,0c0,0,0,0,0,0c0,0-0.1,0-0.1,0c0,0,0,0,0,0
	c0,0,0,0-0.1,0.1c0,0,0,0,0,0c0,0,0,0,0,0c0,0,0,0,0,0.1c0,0,0,0,0,0c0,0,0,0,0,0.1c0,0,0,0,0,0c0,0,0,0,0,0v133.7c0,0,0,0,0,0
	c0,0,0,0,0,0c0,0,0,0,0,0.1c0,0,0,0,0,0c0,0,0,0,0,0.1c0,0,0,0,0,0c0,0,0,0,0,0c0,0,0,0,0.1,0.1c0,0,0,0,0,0c0,0,0,0,0.1,0
	c0,0,0,0,0,0c0,0,0,0,0.1,0h0c0,0,0,0,0,0h133.6c0,0,0,0,0.1,0c0,0,0,0,0,0c0,0,0,0,0,0c0,0,0,0,0,0c0,0,0,0,0,0c0,0,0,0,0,0
	c0,0,0,0,0,0c0,0,0,0,0,0c0,0,0,0,0,0c0,0,0,0,0-0.1c0,0,0,0,0,0c0,0,0,0,0-0.1c0,0,0,0,0,0c0,0,0,0,0,0L134.6,0.6
	C134.6,0.7,134.6,0.7,134.6,0.6C134.6,0.6,134.6,0.6,134.6,0.6z M68,67.4l36.8-21.2V89l-0.7,0.4L68,67.4z M103.5,89.8l-35.8,20.7
	V67.9L103.5,89.8z M67.7,66.9V24.5l36.7,21.2L67.7,66.9z M68.2,24.2l65.4-23l-28.7,44.2L68.2,24.2z M132.6,0.9l-65,22.8L67.6,0.9
	H132.6z M67.1,67.9v42.4L31.5,89.8L67.1,67.9z M30.9,89.4L30.2,89V46.2l36.6,21.2L30.9,89.4z M30.6,45.7l36.6-21.1v42.3L30.6,45.7z
	 M67,0.9l0.1,22.8L2.3,0.9H67z M66.7,24.2L30,45.4L1.4,1.2L66.7,24.2z M0.9,1.6l28.6,44L0.9,66.8V1.6z M0.9,67.5l28.7-21.3v42.9
	c0,0.1,0.1,0.2,0.1,0.2l0.6,0.3l-0.6,0.4c0,0-0.1,0.1-0.1,0.1L0.9,133.4V67.5z M30.1,90.6l0.8-0.5l35.8,20.7l-65.3,23L30.1,90.6z
	 M2.3,134l65-22.9c0,0,0.1,0,0.1,0c0,0,0,0,0.1,0l65.1,22.9H2.3z M68.2,110.8l35.9-20.7l0.8,0.5l28.7,43.2L68.2,110.8z M134,133.4
	l-28.7-43.2c0,0-0.1-0.1-0.1-0.1l-0.6-0.4l0.6-0.3c0.1-0.1,0.1-0.1,0.1-0.2V46.3l28.4,21.4l0.2-0.3V133.4z M134,67.1l-28.6-21.5
	l28.6-44V67.1z"/>
</svg>
