<?xml version="1.0" encoding="utf-8"?>
<!-- Generator: Adobe Illustrator 23.0.1, SVG Export Plug-In . SVG Version: 6.00 Build 0)  -->
<svg version="1.1" id="rectangle" xmlns="http://www.w3.org/2000/svg" xmlns:xlink="http://www.w3.org/1999/xlink" x="0px" y="0px"
	 viewBox="0 0 135 135.2" style="enable-background:new 0 0 135 135.2;" xml:space="preserve">
<style type="text/css">
	.st0{fill:none;stroke:#FFFFFF;stroke-width:1.5;stroke-miterlimit:10;}
</style>
<path class="st0" d="M120.3,16L120.3,16L120.3,16L120.3,16L120.3,16L120.3,16l-0.2-0.2l0,0c0,0,0,0-0.1,0H17.6c0,0,0,0-0.1,0l0,0
	h-0.1l0,0c0,0,0,0-0.1,0.1l0,0l0,0c0,0,0,0,0,0.1l0,0c0,0,0,0,0,0.1l0,0l0,0v102.6l0,0l0,0c0,0,0,0,0,0.1l0,0c0,0,0,0,0,0.1l0,0l0,0
	c0,0,0,0,0.1,0.1l0,0c0,0,0,0,0.1,0l0,0c0,0,0,0,0.1,0l0,0l0,0h102.5c0,0,0,0,0.1,0l0,0l0,0l0,0l0,0l0,0l0,0l0,0l0,0c0,0,0,0,0-0.1
	l0,0c0,0,0,0,0-0.1l0,0l0,0L120.3,16C120.3,16.1,120.3,16.1,120.3,16L120.3,16z M69.3,67.3L97.5,51v32.8L97,84.1L69.3,67.3z
	 M96.5,84.5L69,100.3V67.7L96.5,84.5z M69,66.9V34.4l28.1,16.3L69,66.9z M69.4,34.1l50.2-17.6l-22,33.9L69.4,34.1z M118.8,16.3
	L68.9,33.8V16.3H118.8z M68.6,67.7v32.5L41.3,84.5L68.6,67.7z M40.8,84.2l-0.5-0.3V51l28.1,16.3L40.8,84.2z M40.6,50.6l28.1-16.2
	v32.4L40.6,50.6z M68.5,16.3l0.1,17.5L18.9,16.3H68.5z M68.3,34.1L40.1,50.4L18.2,16.5L68.3,34.1z M17.8,16.8l21.9,33.7L17.8,66.8
	V16.8z M17.8,67.4l22-16.3V84c0,0.1,0.1,0.2,0.1,0.2l0.5,0.2l-0.5,0.3l-0.1,0.1l-22,33.2V67.4z M40.2,85.1l0.6-0.4l27.5,15.9
	l-50.1,17.6L40.2,85.1z M18.9,118.4l49.9-17.6h0.1c0,0,0,0,0.1,0l49.9,17.6H18.9z M69.4,100.6l27.5-15.9l0.6,0.4l22,33.1L69.4,100.6
	z M119.9,117.9l-22-33.1l-0.1-0.1l-0.5-0.3l0.5-0.2c0.1-0.1,0.1-0.1,0.1-0.2V51.1l21.8,16.4l0.2-0.2L119.9,117.9L119.9,117.9z
	 M119.9,67l-22-16.4l21.9-33.7L119.9,67L119.9,67z"/>
</svg>
