<?xml version="1.0" encoding="utf-8"?>
<!-- Generator: Adobe Illustrator 23.0.1, SVG Export Plug-In . SVG Version: 6.00 Build 0)  -->
<svg version="1.1" id="rectangle" xmlns="http://www.w3.org/2000/svg" xmlns:xlink="http://www.w3.org/1999/xlink" x="0px" y="0px"
	 viewBox="0 0 135 135.2" style="enable-background:new 0 0 135 135.2;" xml:space="preserve">
<style type="text/css">
	.st0{fill:none;stroke:#FFFFFF;stroke-width:1.5;stroke-miterlimit:10;}
</style>
<path class="st0" d="M121.3,15.9H51.6H34.8H18.1c-0.2,0-0.2,0.1-0.2,0.2v103.3c0,0.2,0.1,0.2,0.2,0.2h86.4h0.7h16.1
	c0.2,0,0.2-0.1,0.2-0.2V16.1C121.5,16,121.4,15.9,121.3,15.9z M51.8,49.9h35.6v35.8H51.8V49.9z M35.1,16.3h16.4v69.6
	c0,0.2,0.1,0.2,0.2,0.2h35.8v16.4H35.1C35.1,102.5,35.1,16.3,35.1,16.3z M104.3,119.2h-86V16.3h16.4v86.3c0,0.2,0.1,0.2,0.2,0.2
	h52.7V119H88V49.6c0-0.2-0.1-0.2-0.2-0.2h-36V33.1h52.4v86.1H104.3z M121,119.2h-15.9h-0.5V32.9c0-0.2-0.1-0.2-0.2-0.2H51.8V16.3
	H121V119.2z"/>
</svg>
