<?xml version="1.0" encoding="utf-8"?>
<!-- Generator: Adobe Illustrator 23.0.1, SVG Export Plug-In . SVG Version: 6.00 Build 0)  -->
<svg version="1.1" id="gradient_x5F_circle" xmlns="http://www.w3.org/2000/svg" xmlns:xlink="http://www.w3.org/1999/xlink"
	 x="0px" y="0px" viewBox="0 0 171.6 171.6" style="enable-background:new 0 0 171.6 171.6;" xml:space="preserve">
<style type="text/css">
	.st0{clip-path:url(#SVGID_2_);}
	.st1{fill:#00ACE4;}
	.st2{fill:url(#SVGID_4_);}
	.st3{opacity:0.74;clip-path:url(#SVGID_6_);fill:url(#SVGID_7_);enable-background:new    ;}
	.st4{clip-path:url(#SVGID_9_);fill:url(#SVGID_10_);}
	.st5{opacity:0.56;clip-path:url(#SVGID_12_);}
	.st6{fill:url(#SVGID_13_);}
	.st7{clip-path:url(#SVGID_15_);fill:url(#SVGID_16_);}
	.st8{clip-path:url(#SVGID_18_);fill:url(#SVGID_19_);}
	.st9{opacity:0.56;clip-path:url(#SVGID_21_);fill:url(#SVGID_22_);enable-background:new    ;}
	.st10{opacity:0.74;clip-path:url(#SVGID_24_);fill:url(#SVGID_25_);enable-background:new    ;}
	.st11{opacity:0.91;clip-path:url(#SVGID_27_);fill:url(#SVGID_28_);enable-background:new    ;}
</style>
<g id="circle_1_">
	<g>
		<g>
			<defs>
				<circle id="SVGID_1_" cx="85.8" cy="85.8" r="85.8"/>
			</defs>
			<clipPath id="SVGID_2_">
				<use xlink:href="#SVGID_1_"  style="overflow:visible;"/>
			</clipPath>
			<g class="st0">
				<g>
					<path class="st1" d="M82.9,125.2"/>
				</g>
				<g id="gradient">
					<g id="purple_x5F_pink_x5F_aqua_x5F_gradient">
						<g>
							
								<linearGradient id="SVGID_4_" gradientUnits="userSpaceOnUse" x1="16.0381" y1="34.7346" x2="191.1381" y2="34.7346" gradientTransform="matrix(-6.123234e-17 1 -1 -6.123234e-17 132.5346 -17.7881)">
								<stop  offset="0" style="stop-color:#34C0CF"/>
								<stop  offset="0" style="stop-color:#3ABCD0"/>
								<stop  offset="1" style="stop-color:#FF2EF8"/>
							</linearGradient>
							<rect id="SVGID_3_" x="-31.4" y="-1.8" class="st2" width="258.4" height="175.1"/>
						</g>
						<g>
							<defs>
								<rect id="SVGID_5_" x="-31.4" y="-1.8" width="258.4" height="175.1"/>
							</defs>
							<clipPath id="SVGID_6_">
								<use xlink:href="#SVGID_5_"  style="overflow:visible;"/>
							</clipPath>
							
								<linearGradient id="SVGID_7_" gradientUnits="userSpaceOnUse" x1="-327.3595" y1="-137.4959" x2="-486.3491" y2="137.8821" gradientTransform="matrix(6.123234e-17 -1 -1 -6.123234e-17 132.5346 -276.1881)">
								<stop  offset="0" style="stop-color:#00D89B"/>
								<stop  offset="1" style="stop-color:#FF2EF8"/>
							</linearGradient>
							<path class="st3" d="M-21,183.1c0,0,89.7-62.1,106.3-129.5c22.1-90.2,173-98.4,153.3-36.6c-8.9,27.9-21.8,201.7-21.8,201.7
								L-21,183.1z"/>
						</g>
						<g>
							<defs>
								<rect id="SVGID_8_" x="-31.4" y="-1.8" width="258.4" height="175.1"/>
							</defs>
							<clipPath id="SVGID_9_">
								<use xlink:href="#SVGID_8_"  style="overflow:visible;"/>
							</clipPath>
							
								<linearGradient id="SVGID_10_" gradientUnits="userSpaceOnUse" x1="-371.3886" y1="-104.4167" x2="-371.3886" y2="136.8346" gradientTransform="matrix(6.123234e-17 -1 -1 -6.123234e-17 132.5346 -276.1881)">
								<stop  offset="0" style="stop-color:#00D89B"/>
								<stop  offset="1" style="stop-color:#FF2EF8"/>
							</linearGradient>
							<path class="st4" d="M-4.3,173.9c0,0,82.8-57.3,98.1-119.5C114.2-29,253.6-36.5,235.3,20.5c-8.2,25.8-20.2,186.2-20.2,186.2
								L-4.3,173.9z"/>
						</g>
						<g>
							<defs>
								<rect id="SVGID_11_" x="-31.4" y="-1.8" width="258.4" height="175.1"/>
							</defs>
							<clipPath id="SVGID_12_">
								<use xlink:href="#SVGID_11_"  style="overflow:visible;"/>
							</clipPath>
							<g class="st5">
								
									<linearGradient id="SVGID_13_" gradientUnits="userSpaceOnUse" x1="-504.8035" y1="622.6813" x2="-298.5035" y2="622.6813" gradientTransform="matrix(-1 0 0 1 -399.9035 -550.1813)">
									<stop  offset="0" style="stop-color:#38BCD0"/>
									<stop  offset="1" style="stop-color:#FF2EF8"/>
								</linearGradient>
								<path class="st6" d="M104.9-36c0,0-23.5,90.6-95.2,85.2s-72.9,109.7-76.9,131.9h-34.2V-22.2V-36L104.9-36z"/>
							</g>
						</g>
						<g>
							<defs>
								<rect id="SVGID_14_" x="-31.4" y="-1.8" width="258.4" height="175.1"/>
							</defs>
							<clipPath id="SVGID_15_">
								<use xlink:href="#SVGID_14_"  style="overflow:visible;"/>
							</clipPath>
							
								<linearGradient id="SVGID_16_" gradientUnits="userSpaceOnUse" x1="-503.0035" y1="614.9813" x2="-296.8035" y2="614.9813" gradientTransform="matrix(-1 0 0 1 -399.9035 -550.1813)">
								<stop  offset="0" style="stop-color:#38BCD0"/>
								<stop  offset="1" style="stop-color:#FF2EF8"/>
							</linearGradient>
							<path class="st7" d="M103.1-43.8c0,0-23.5,90.6-95.2,85.2C-63.7,36-65,151.1-68.9,173.4h-34.2V-29.8v-13.8L103.1-43.8z"/>
						</g>
						<g>
							<defs>
								<rect id="SVGID_17_" x="-31.4" y="-1.8" width="258.4" height="175.1"/>
							</defs>
							<clipPath id="SVGID_18_">
								<use xlink:href="#SVGID_17_"  style="overflow:visible;"/>
							</clipPath>
							
								<linearGradient id="SVGID_19_" gradientUnits="userSpaceOnUse" x1="-634.8035" y1="676.2838" x2="-433.7035" y2="676.2838" gradientTransform="matrix(-1 0 0 1 -399.9035 -550.1813)">
								<stop  offset="0" style="stop-color:#00D89B"/>
								<stop  offset="1" style="stop-color:#FF2EF8"/>
							</linearGradient>
							<path class="st8" d="M234.9,195.4V59.7c0,0-44.3-35.7-91,45.7s-65.6,71.6-110.1,94.8L234.9,195.4z"/>
						</g>
						<g>
							<defs>
								<rect id="SVGID_20_" x="-31.4" y="-1.8" width="258.4" height="175.1"/>
							</defs>
							<clipPath id="SVGID_21_">
								<use xlink:href="#SVGID_20_"  style="overflow:visible;"/>
							</clipPath>
							
								<linearGradient id="SVGID_22_" gradientUnits="userSpaceOnUse" x1="-631.5035" y1="669.1838" x2="-430.3035" y2="669.1838" gradientTransform="matrix(-1 0 0 1 -399.9035 -550.1813)">
								<stop  offset="0" style="stop-color:#00D89B"/>
								<stop  offset="1" style="stop-color:#FF2EF8"/>
							</linearGradient>
							<path class="st9" d="M231.6,188.2V52.6c0,0-44.3-35.7-91,45.7c-46.8,81.4-65.7,71.6-110.2,94.8L231.6,188.2z"/>
						</g>
						<g>
							<defs>
								<rect id="SVGID_23_" x="-31.4" y="-1.8" width="258.4" height="175.1"/>
							</defs>
							<clipPath id="SVGID_24_">
								<use xlink:href="#SVGID_23_"  style="overflow:visible;"/>
							</clipPath>
							
								<linearGradient id="SVGID_25_" gradientUnits="userSpaceOnUse" x1="-645.6035" y1="674.6838" x2="-444.5035" y2="674.6838" gradientTransform="matrix(-1 0 0 1 -399.9035 -550.1813)">
								<stop  offset="0" style="stop-color:#00D89B"/>
								<stop  offset="1" style="stop-color:#FF2EF8"/>
							</linearGradient>
							<path class="st10" d="M245.7,193.8V58.1c0,0-44.3-35.7-91,45.7s-65.6,71.6-110.1,94.8L245.7,193.8z"/>
						</g>
						<g>
							<defs>
								<rect id="SVGID_26_" x="-31.4" y="-1.8" width="258.4" height="175.1"/>
							</defs>
							<clipPath id="SVGID_27_">
								<use xlink:href="#SVGID_26_"  style="overflow:visible;"/>
							</clipPath>
							
								<linearGradient id="SVGID_28_" gradientUnits="userSpaceOnUse" x1="-653.7036" y1="680.1838" x2="-452.6035" y2="680.1838" gradientTransform="matrix(-1 0 0 1 -399.9035 -550.1813)">
								<stop  offset="0" style="stop-color:#00D89B"/>
								<stop  offset="1" style="stop-color:#FF2EF8"/>
							</linearGradient>
							<path class="st11" d="M253.8,199.2V63.6c0,0-44.3-35.7-91,45.7s-65.6,71.6-110.1,94.8L253.8,199.2z"/>
						</g>
					</g>
				</g>
			</g>
		</g>
	</g>
</g>
</svg>
