<?xml version="1.0" encoding="utf-8"?>
<!-- Generator: Adobe Illustrator 23.0.1, SVG Export Plug-In . SVG Version: 6.00 Build 0)  -->
<svg version="1.1" id="gradient_x5F_circle" xmlns="http://www.w3.org/2000/svg" xmlns:xlink="http://www.w3.org/1999/xlink"
	 x="0px" y="0px" viewBox="0 0 171.6 171.6" style="enable-background:new 0 0 171.6 171.6;" xml:space="preserve">
<style type="text/css">
	.st0{clip-path:url(#SVGID_2_);}
	.st1{opacity:0.74;clip-path:url(#SVGID_5_);fill:url(#SVGID_6_);}
	.st2{clip-path:url(#SVGID_5_);fill:url(#SVGID_7_);}
	.st3{opacity:0.56;clip-path:url(#SVGID_5_);}
	.st4{fill:url(#SVGID_8_);}
	.st5{clip-path:url(#SVGID_5_);fill:url(#SVGID_9_);}
	.st6{clip-path:url(#SVGID_5_);fill:url(#SVGID_10_);}
	.st7{opacity:0.56;clip-path:url(#SVGID_5_);fill:url(#SVGID_11_);}
	.st8{opacity:0.74;clip-path:url(#SVGID_5_);fill:url(#SVGID_12_);}
	.st9{opacity:0.91;clip-path:url(#SVGID_5_);fill:url(#SVGID_13_);}
</style>
<g id="circle_1_">
	<defs>
		<circle id="SVGID_1_" cx="85.8" cy="85.8" r="85.8"/>
	</defs>
	<clipPath id="SVGID_2_">
		<use xlink:href="#SVGID_1_"  style="overflow:visible;"/>
	</clipPath>
	<g id="gradient" class="st0">
		<g id="purple_x5F_pink_x5F_aqua_x5F_gradient">
			<defs>
				<rect id="SVGID_3_" x="-3" y="-40.2" width="175.1" height="258.4"/>
			</defs>
			
				<linearGradient id="SVGID_4_" gradientUnits="userSpaceOnUse" x1="478.5721" y1="88.9808" x2="653.6971" y2="88.9808" gradientTransform="matrix(-1 0 0 1 650.7432 0)">
				<stop  offset="0" style="stop-color:#00D89B"/>
				<stop  offset="1" style="stop-color:#FF2EF8"/>
			</linearGradient>
			<use xlink:href="#SVGID_3_"  style="overflow:visible;fill:url(#SVGID_4_);"/>
			<clipPath id="SVGID_5_">
				<use xlink:href="#SVGID_3_"  style="overflow:visible;"/>
			</clipPath>
			
				<linearGradient id="SVGID_6_" gradientUnits="userSpaceOnUse" x1="-367.9543" y1="261.1852" x2="-526.9265" y2="-14.1627" gradientTransform="matrix(1 0 0 1 487.1432 0)">
				<stop  offset="0" style="stop-color:#00D89B"/>
				<stop  offset="1" style="stop-color:#FF2EF8"/>
			</linearGradient>
			<path class="st1" d="M-12.7-29.8c0,0,62.1,89.7,129.5,106.3c90.2,22.1,98.4,173,36.6,153.3c-27.9-8.9-201.7-21.8-201.7-21.8
				L-12.7-29.8z"/>
			
				<linearGradient id="SVGID_7_" gradientUnits="userSpaceOnUse" x1="-411.9521" y1="228.2133" x2="-411.9521" y2="-13.0635" gradientTransform="matrix(1 0 0 1 487.1432 0)">
				<stop  offset="0" style="stop-color:#00D89B"/>
				<stop  offset="1" style="stop-color:#FF2EF8"/>
			</linearGradient>
			<path class="st2" d="M-3.5-13.1c0,0,57.3,82.8,119.5,98.1c83.3,20.4,90.9,159.8,33.8,141.5c-25.8-8.2-186.2-20.2-186.2-20.2
				L-3.5-13.1z"/>
			<g class="st3">
				
					<linearGradient id="SVGID_8_" gradientUnits="userSpaceOnUse" x1="89.3278" y1="-367.3616" x2="295.5829" y2="-367.3616" gradientTransform="matrix(0 -1 1 0 465.2467 185.4516)">
					<stop  offset="0" style="stop-color:#00D89B"/>
					<stop  offset="1" style="stop-color:#FF2EF8"/>
				</linearGradient>
				<path class="st4" d="M206.4,96.1c0,0-90.6-23.5-85.2-95.2c5.4-71.7-109.7-72.9-131.9-76.9v-34.2h203.2h13.8L206.4,96.1z"/>
			</g>
			
				<linearGradient id="SVGID_9_" gradientUnits="userSpaceOnUse" x1="91.146" y1="-359.6599" x2="297.4011" y2="-359.6599" gradientTransform="matrix(0 -1 1 0 465.2467 185.4516)">
				<stop  offset="0" style="stop-color:#00D89B"/>
				<stop  offset="1" style="stop-color:#FF2EF8"/>
			</linearGradient>
			<path class="st5" d="M214.1,94.3c0,0-90.6-23.5-85.2-95.2C134.4-72.5,19.3-73.8-3-77.7v-34.2h203.2h13.8L214.1,94.3z"/>
			
				<linearGradient id="SVGID_10_" gradientUnits="userSpaceOnUse" x1="-40.68" y1="-420.9935" x2="160.4842" y2="-420.9935" gradientTransform="matrix(0 -1 1 0 465.2467 185.4516)">
				<stop  offset="0" style="stop-color:#00D89B"/>
				<stop  offset="1" style="stop-color:#FF2EF8"/>
			</linearGradient>
			<path class="st6" d="M-25,226.1h135.6c0,0,35.7-44.3-45.7-91C-16.5,88.4-6.7,69.5-29.9,25L-25,226.1z"/>
			
				<linearGradient id="SVGID_11_" gradientUnits="userSpaceOnUse" x1="-37.3474" y1="-413.9217" x2="163.8168" y2="-413.9217" gradientTransform="matrix(0 -1 1 0 465.2467 185.4516)">
				<stop  offset="0" style="stop-color:#00D89B"/>
				<stop  offset="1" style="stop-color:#FF2EF8"/>
			</linearGradient>
			<path class="st7" d="M-17.9,222.8h135.6c0,0,35.7-44.3-45.7-91C-9.4,85,0.4,66.1-22.8,21.6L-17.9,222.8z"/>
			
				<linearGradient id="SVGID_12_" gradientUnits="userSpaceOnUse" x1="-51.4911" y1="-419.422" x2="149.673" y2="-419.422" gradientTransform="matrix(0 -1 1 0 465.2467 185.4516)">
				<stop  offset="0" style="stop-color:#00D89B"/>
				<stop  offset="1" style="stop-color:#FF2EF8"/>
			</linearGradient>
			<path class="st8" d="M-23.4,236.9h135.6c0,0,35.7-44.3-45.7-91C-14.9,99.2-5.1,80.3-28.3,35.8L-23.4,236.9z"/>
			
				<linearGradient id="SVGID_13_" gradientUnits="userSpaceOnUse" x1="-59.5734" y1="-424.9224" x2="141.5908" y2="-424.9224" gradientTransform="matrix(0 -1 1 0 465.2467 185.4516)">
				<stop  offset="0" style="stop-color:#00D89B"/>
				<stop  offset="1" style="stop-color:#FF2EF8"/>
			</linearGradient>
			<path class="st9" d="M-28.9,245h135.6c0,0,35.7-44.3-45.7-91c-81.4-46.7-71.6-65.6-94.8-110.1L-28.9,245z"/>
		</g>
	</g>
</g>
</svg>
