<?xml version="1.0" encoding="utf-8"?>
<!-- Generator: Adobe Illustrator 23.0.1, SVG Export Plug-In . SVG Version: 6.00 Build 0)  -->
<svg version="1.1" id="octagon" xmlns="http://www.w3.org/2000/svg" xmlns:xlink="http://www.w3.org/1999/xlink" x="0px" y="0px"
	 viewBox="0 0 135 155.6" style="enable-background:new 0 0 135 155.6;" xml:space="preserve">
<style type="text/css">
	.st0{fill:none;stroke:#FFFFFF;stroke-width:0.75;stroke-miterlimit:10;}
</style>
<path class="st0" d="M67.5,155.2c0,0,0.1,0,0.1,0l66.8-38.6c0.1-0.1,0.1-0.1,0.1-0.2V39.2c0-0.1-0.1-0.2-0.1-0.2l-19.4-11.2
	l-0.1-0.2l-0.1,0.1L67.6,0.4c-0.1-0.1-0.2-0.1-0.3,0L20.1,27.7L20,27.6l-0.1,0.2L0.5,39c-0.1,0.1-0.1,0.1-0.1,0.2v77.2
	c0,0.1,0.1,0.2,0.1,0.2l66.8,38.6C67.4,155.2,67.4,155.2,67.5,155.2z M85.7,144.1l-0.7-36.3l29,20L85.7,144.1z M134,116.2
	l-19.6,11.3L84.8,107c-0.1-0.1-0.2-0.1-0.3,0c-0.1,0.1-0.2,0.2-0.2,0.3l0.8,37.2l-17.4,10v-37.8l33.3-19.2L134,116V116.2z
	 M100.5,97.1L67.7,116V98.9l17.8-10.3L100.5,97.1z M85.9,88.2V67.5l14.8-8.3v37.4L85.9,88.2z M134,115.4l-32.8-18.5V78.1L134,95.7
	V115.4z M134,95l-32.4-17.3L134,61.9V95z M134,61.3l-32.8,15.9V58.8L134,40.5V61.3z M114.9,28.4l19.1,11v0.4l-32.9,18.4c0,0,0,0,0,0
	l-16-9.3L114.9,28.4z M114.3,28.1L84.9,48.4l0.8-36.9L114.3,28.1z M67.7,1.1l17.4,10.1l-0.8,37.3L67.7,39V1.1z M67.7,39.6l32.8,18.9
	l-15,8.4L67.7,56.7V39.6z M67.5,57.2l17.8,10.3v20.6L67.5,98.4L49.7,88.1V67.5L67.5,57.2z M34.4,58.6l32.8-18.9v17.1L49.4,67
	L34.4,58.6z M49.1,67.5v20.6l-14.8,8.4V59.2L49.1,67.5z M67.2,1.2V39l-16.6,9.6l-0.8-37.3L67.2,1.2z M49.2,11.5L50,48.4L20.6,28.1
	L49.2,11.5z M0.9,39.4l19.1-11L49.9,49l-16,9.2c0,0,0,0,0,0L0.9,39.8V39.4z M0.9,40.5l32.8,18.4v19.9L0.9,61.3V40.5z M0.9,61.9
	l32.4,17.3L0.9,95V61.9z M0.9,95.6l32.8-15.9v17.1L0.9,115.4V95.6z M21,127.8l29-20l-0.7,36.3L21,127.8z M67.2,154.5l-17.4-10
	l0.8-37.2c0-0.1-0.1-0.2-0.2-0.3c-0.1-0.1-0.2,0-0.3,0l-29.6,20.5L0.9,116.2V116l32.9-18.6l33.3,19.2V154.5z M67.2,116L34.4,97.1
	l15-8.5l17.8,10.2V116z"/>
</svg>
