<?xml version="1.0" encoding="utf-8"?>
<!-- Generator: Adobe Illustrator 23.0.1, SVG Export Plug-In . SVG Version: 6.00 Build 0)  -->
<svg version="1.1" id="Layer_1" xmlns="http://www.w3.org/2000/svg" xmlns:xlink="http://www.w3.org/1999/xlink" x="0px" y="0px"
	 viewBox="0 0 135 155.6" style="enable-background:new 0 0 135 155.6;" xml:space="preserve">
<style type="text/css">
	.st0{fill:none;stroke:#FFFFFF;stroke-width:0.75;stroke-miterlimit:10;}
</style>
<path class="st0" d="M67.6,0.4c-0.1-0.1-0.2-0.1-0.3,0L0.5,39c-0.1,0.1-0.1,0.1-0.1,0.2v77.2c0,0.1,0.1,0.2,0.1,0.2l66.8,38.6
	c0,0,0.1,0,0.1,0c0,0,0.1,0,0.1,0l66.8-38.6c0.1-0.1,0.1-0.1,0.1-0.2V39.2c0-0.1-0.1-0.2-0.1-0.2L67.6,0.4z M67.5,1l39.6,22.9
	L67.5,48.3L27.8,23.9L67.5,1z M27.3,24.2l40,24.7c0,0,0.1,0,0.2,0c0.1,0,0.1,0,0.2,0l40.1-24.7l26.1,15L67.4,77.5L1.2,39.3
	L27.3,24.2z M0.9,39.8l65.9,38.1L39.6,93.6L0.9,71.3V39.8z M0.9,72l38,21.9l-38,22V72z M134,116.2l-66.5,38.4l-30.1-17.4L134,78.3
	V116.2z M134,77.7l-97.2,59.3L1.2,116.4L134,39.7V77.7z"/>
</svg>
