<?xml version="1.0" encoding="utf-8"?>
<!-- Generator: Adobe Illustrator 23.0.1, SVG Export Plug-In . SVG Version: 6.00 Build 0)  -->
<svg version="1.1" id="octagon_1_" xmlns="http://www.w3.org/2000/svg" xmlns:xlink="http://www.w3.org/1999/xlink" x="0px" y="0px"
	 viewBox="0 0 134.9 155.5" style="enable-background:new 0 0 134.9 155.5;" xml:space="preserve">
<style type="text/css">
	.st0{fill:none;stroke:#FFFFFF;stroke-width:1.5;stroke-miterlimit:10;}
</style>
<path class="st0" d="M67.1,139.7L67.1,139.7l53.1-30.6c0.1-0.1,0.1-0.1,0.1-0.2V47.7c0-0.1-0.1-0.2-0.1-0.2l-15.4-8.9l-0.1-0.2
	l-0.1,0.1L67.1,16.9c-0.1-0.1-0.2-0.1-0.2,0L29.5,38.6l-0.1-0.1l-0.1,0.2l-15.4,8.9c-0.1,0.1-0.1,0.1-0.1,0.2V109
	c0,0.1,0.1,0.2,0.1,0.2l53,30.6C67,139.7,67,139.7,67.1,139.7z M81.5,130.9l-0.6-28.8l23,15.9L81.5,130.9z M119.8,108.8l-15.5,9
	l-23.5-16.3c-0.1-0.1-0.2-0.1-0.2,0c-0.1,0.1-0.2,0.2-0.2,0.2l0.6,29.5l-13.8,7.9v-30L93.6,94l26.2,14.7V108.8z M93.2,93.7l-26,15
	V95.1l14.1-8.2L93.2,93.7z M81.7,86.6V70.2l11.7-6.6v29.7L81.7,86.6z M119.8,108.2l-26-14.7V78.6l26,14V108.2z M119.8,92L94.1,78.3
	l25.7-12.5V92z M119.8,65.3l-26,12.6V63.3l26-14.5V65.3z M104.7,39.2l15.2,8.7v0.3L93.7,62.8l0,0L81,55.4L104.7,39.2z M104.2,38.9
	L80.9,55l0.6-29.3L104.2,38.9z M67.2,17.5l13.8,8l-0.6,29.6l-13.2-7.5V17.5z M67.2,48l26,15l-11.9,6.7l-14.1-8.1V48z M67.1,62
	l14.1,8.2v16.3l-14.1,8.2l-14.1-8.2V70.2L67.1,62z M40.8,63.1l26-15v13.6l-14.1,8.1L40.8,63.1z M52.5,70.2v16.3l-11.7,6.7V63.6
	L52.5,70.2z M66.8,17.6v30l-13.2,7.6L53,25.6L66.8,17.6z M52.6,25.8L53.2,55L29.9,38.9L52.6,25.8z M14.2,47.9l15.2-8.7l23.7,16.3
	l-12.7,7.3l0,0L14.2,48.2V47.9z M14.2,48.8l26,14.6v15.8l-26-13.9V48.8z M14.2,65.7l25.7,13.7L14.2,92V65.7z M14.2,92.5l26-12.6
	v13.6l-26,14.8V92.5z M30.2,118l23-15.9l-0.6,28.8L30.2,118z M66.8,139.2L53,131.3l0.6-29.5c0-0.1-0.1-0.2-0.2-0.2
	c-0.1-0.1-0.2,0-0.2,0l-23.5,16.3l-15.5-9v-0.2l26.1-14.8l26.4,15.2L66.8,139.2L66.8,139.2z M66.8,108.6l-26-15l11.9-6.7L66.8,95
	V108.6z"/>
</svg>
