<?xml version="1.0" encoding="utf-8"?>
<!-- Generator: Adobe Illustrator 23.0.1, SVG Export Plug-In . SVG Version: 6.00 Build 0)  -->
<svg version="1.1" id="octagon" xmlns="http://www.w3.org/2000/svg" xmlns:xlink="http://www.w3.org/1999/xlink" x="0px" y="0px"
	 viewBox="0 0 134.9 155.5" style="enable-background:new 0 0 134.9 155.5;" xml:space="preserve">
<style type="text/css">
	.st0{fill:none;stroke:#FFFFFF;stroke-width:1.5;stroke-miterlimit:10;}
</style>
<path class="st0" d="M68.7,17.6c-0.1-0.1-0.2-0.1-0.2,0L16.3,47.8c-0.1,0.1-0.1,0.1-0.1,0.2v60.3c0,0.1,0.1,0.2,0.1,0.2l52.2,30.2
	h0.1h0.1l52.2-30.2c0.1-0.1,0.1-0.1,0.1-0.2V48c0-0.1-0.1-0.2-0.1-0.2L68.7,17.6z M68.7,18.1l31,17.9l-31,19.1L37.6,36L68.7,18.1z
	 M37.2,36.2l31.3,19.3c0,0,0.1,0,0.2,0s0.1,0,0.2,0l31.3-19.3L120.6,48l-52,29.9L16.8,48L37.2,36.2z M16.6,48.4l51.5,29.8L46.9,90.5
	L16.6,73.1V48.4z M16.6,73.6l29.7,17.1l-29.7,17.2C16.6,107.9,16.6,73.6,16.6,73.6z M120.6,108.2l-52,30l-23.5-13.6l75.5-46V108.2z
	 M120.6,78.1l-76,46.4l-27.8-16.1l103.8-60V78.1z"/>
</svg>
