<?xml version="1.0" encoding="utf-8"?>
<!-- Generator: Adobe Illustrator 23.0.1, SVG Export Plug-In . SVG Version: 6.00 Build 0)  -->
<svg version="1.1" id="octagon" xmlns="http://www.w3.org/2000/svg" xmlns:xlink="http://www.w3.org/1999/xlink" x="0px" y="0px"
	 viewBox="0 0 134.9 155.5" style="enable-background:new 0 0 134.9 155.5;" xml:space="preserve">
<style type="text/css">
	.st0{fill:none;stroke:#FFFFFF;stroke-width:0.75;stroke-miterlimit:10;}
</style>
<path class="st0" d="M67.6,0.4c-0.1-0.1-0.2-0.1-0.3,0L0.6,38.9h0v0l0,0c-0.1,0.1-0.1,0.1-0.1,0.2v77c0,0.1,0,0.2,0,0.3
	c0,0.1,0.1,0.1,0.2,0.1l66.7,38.5c0,0,0.1,0,0.1,0c0,0,0.1,0,0.1,0l66.8-38.5c0.1-0.1,0.1-0.1,0.1-0.2V39.2c0-0.1-0.1-0.2-0.1-0.2
	L67.6,0.4z M67.6,1.1l65.6,37.9H45.7L67.6,1.1z M66.7,1.4L45,38.9H1.7L66.7,1.4z M1,39.5h43.7L1,115.2V39.5z M45.3,39.5h88.4
	L89.5,116H1.2L45.3,39.5z M67.3,154.5L1.8,116.6h87.4L67.3,154.5z M68.2,154.1l21.6-37.5h43.3L68.2,154.1z M133.9,116H90.2
	l43.7-75.7V116z"/>
</svg>
