<?xml version="1.0" encoding="utf-8"?>
<!-- Generator: Adobe Illustrator 23.0.1, SVG Export Plug-In . SVG Version: 6.00 Build 0)  -->
<svg version="1.1" id="octagon" xmlns="http://www.w3.org/2000/svg" xmlns:xlink="http://www.w3.org/1999/xlink" x="0px" y="0px"
	 viewBox="0 0 134.9 155.5" style="enable-background:new 0 0 134.9 155.5;" xml:space="preserve">
<style type="text/css">
	.st0{fill:none;stroke:#FFFFFF;stroke-width:1.5;stroke-miterlimit:10;}
</style>
<path class="st0" d="M68.7,17c-0.1-0.1-0.2-0.1-0.2,0L14.6,48.1l0,0l0,0l0,0c-0.1,0.1-0.1,0.1-0.1,0.2v62.2c0,0.1,0,0.2,0,0.2
	s0.1,0.1,0.2,0.1l53.9,31.1h0.1h0.1l54-31.1c0.1-0.1,0.1-0.1,0.1-0.2V48.3c0-0.1-0.1-0.2-0.1-0.2L68.7,17z M68.7,17.5l53,30.6H51
	L68.7,17.5z M68,17.8L50.5,48.1h-35L68,17.8z M14.9,48.5h35.3l-35.3,61.2V48.5z M50.7,48.5h71.4l-35.7,61.8H15.1L50.7,48.5z
	 M68.5,141.5l-52.9-30.6h70.6L68.5,141.5z M69.2,141.2l17.5-30.3h35L69.2,141.2z M122.3,110.4H87l35.3-61.2V110.4z"/>
</svg>
