<svg id="Object" xmlns="http://www.w3.org/2000/svg" viewBox="0 0 1235.69 1164.27"><defs><style>.cls-1{fill:#251a25;}.cls-2{fill:#f1626b;}.cls-3{fill:#e94156;}.cls-4{fill:#e4ae5e;}.cls-5{fill:#ffd87f;}.cls-6{fill:#594a42;}.cls-7{fill:#f37d81;}.cls-8{fill:#6b594f;}</style></defs><title>record_player</title><g id="record_base"><rect class="cls-1" y="32.05" width="1234.46" height="1132.22" rx="49.57"/><rect class="cls-2" x="1.23" width="1234.46" height="1132.22" rx="49.57"/><rect class="cls-3" x="28.17" y="26.94" width="1180.58" height="1078.34" rx="49.57"/><rect class="cls-4" x="40.91" y="42.48" width="1155.1" height="1047.26" rx="49.57"/><rect class="cls-5" x="56.41" y="56.53" width="1124.11" height="1019.16" rx="49.57"/><circle class="cls-4" cx="1002.2" cy="217.6" r="120.2" transform="translate(139.67 772.4) rotate(-45)"/><circle class="cls-4" cx="128.34" cy="149.9" r="59.06" transform="translate(-68.41 134.65) rotate(-45)"/><circle class="cls-2" cx="134.55" cy="137.47" r="59.06" transform="translate(-52.27 91.66) rotate(-31.84)"/><circle class="cls-4" cx="126.27" cy="995.45" r="59.06" transform="translate(-876.81 1021.84) rotate(-84.28)"/><circle class="cls-2" cx="134.55" cy="983.01" r="59.06" transform="translate(-498.3 218.87) rotate(-31.84)"/><circle class="cls-4" cx="239.56" cy="1019.62" r="34.89" transform="translate(-379.56 174.81) rotate(-23.01)"/><circle class="cls-6" cx="245.77" cy="1007.19" r="34.89"/><circle class="cls-4" cx="880.62" cy="1017.55" r="34.89"/><circle class="cls-4" cx="992.53" cy="1017.55" r="34.89"/><circle class="cls-4" cx="1104.44" cy="1017.55" r="34.89"/><circle class="cls-6" cx="883.01" cy="996.36" r="34.89"/><circle class="cls-6" cx="998.75" cy="1007.19" r="34.89"/><circle class="cls-6" cx="1110.66" cy="1007.19" r="34.89"/><path class="cls-3" d="M150,1017.29c-21-9.81-37.74-24.95-53.18-41.86-6.39-7-10.17-14.37-13.11-22.29A59,59,0,0,0,175,1026,128.27,128.27,0,0,1,150,1017.29Z"/><path class="cls-3" d="M179.26,176a92.78,92.78,0,0,1-30.51-6.55c-33.36-13.6-51.31-35.68-62.18-66.32A59,59,0,0,0,179.26,176Z"/><path class="cls-7" d="M166.7,105.6c-2.9-9.31-14.84-12.58-23.22-14.68-4.65-1.17-17.54-2.3-18.39,4.58A1.9,1.9,0,0,0,127,97.41c5.05-.21,10.82,2,15.41,4a55.25,55.25,0,0,1,8.87,4.44c3.15,2.08,5.73,4.92,9.58,5.56C164.22,112,167.88,109.37,166.7,105.6Z"/><path class="cls-7" d="M180.84,122.07c-1.14-2.56-3.39-5.31-6.32-5.5a3.73,3.73,0,0,0-3.73,3.73,6.9,6.9,0,0,0,.87,2.87c-.37-.72.16.58.17.61.14.46.24.94.34,1.41.43,2,.63,4.11,1.84,5.87a4.3,4.3,0,0,0,7.32,0C183.21,128.11,182.12,125,180.84,122.07Z"/><path class="cls-7" d="M169,957c-3.6-6-10.21-11.77-16.32-15.24-6.33-3.59-15.15-5.65-22-2.75-2.53,1.06-2.67,4.26,0,5.29,2.93,1.12,6,1.14,8.92,2.48a39,39,0,0,1,9,5.64c2.51,2.22,4.16,5.17,6.79,7.28s5.57,2.66,8.67,3.75C167.78,964.72,170.9,960.1,169,957Z"/><path class="cls-7" d="M177.74,981.2c-.45-1.77-1.57-3.83-1.65-5.51a3.66,3.66,0,0,0-7.15-1,15.35,15.35,0,0,0-.18,6.71c.28,2,.83,5.56,3.77,6C176.05,987.94,178.6,984.62,177.74,981.2Z"/><path class="cls-8" d="M1134.37,996.22c-2-6.74-6.75-10.6-13.11-13.16-4.28-1.72-12.19-4.36-15.28.5a2.88,2.88,0,0,0,.45,3.44c2.19,2.56,7,3.18,9.94,5,3.81,2.33,7.19,5.71,10.65,8.54C1130.21,1003.1,1135.72,1000.78,1134.37,996.22Z"/><path class="cls-8" d="M1022,999.46c-.58-6.08-4-10.48-9-13.86-4-2.75-11.33-6-16.17-4.29a3.86,3.86,0,0,0-.91,7c3.09,2,6.49,3.43,9.64,5.33,3.62,2.19,5.5,6.38,8.74,9C1017,1004.79,1022.42,1003.79,1022,999.46Z"/><path class="cls-8" d="M907.17,995.16a19.94,19.94,0,0,0-23.92-12.77,3.8,3.8,0,0,0,0,7.27c3.26.89,7,1.05,9.81,3.21,3,2.3,3.89,5.68,7.53,7.36C903.84,1001.73,908.57,999.25,907.17,995.16Z"/><path class="cls-8" d="M262,986.1c-3.67-2.64-10.71-8.3-15-4.09a2.76,2.76,0,0,0-.43,3.34c1.09,1.68,2.59,2.19,4.26,3.19,2.07,1.24,3.78,3.25,5.47,5s3.11,3.16,3.69,5.55c.7,2.88,2.34,5.14,5.31,5.81,2.3.53,5-.67,5.57-3.16C272.29,994.85,267,989.72,262,986.1Z"/><path class="cls-7" d="M983.47,9.39c-27-.91-52.89-2-80.29-2-29.91,0-59.94.41-89.81.74q-41.49.47-82.89,1.11c-27.64.46-58.07.32-84.65,2.2-6.29.44-6.29,2.39,0,2.83C670.31,16,698.11,16,723.57,16.37q44.89.73,89.8,1.22,41.45.46,82.9.69c29.85.21,57.85-.94,87.2-1.93C999,15.83,999,9.92,983.47,9.39Z"/><path class="cls-7" d="M1147.16,9.28c-18.64-1.5-37.12-.78-56.31-.29-16.27.41-35.27.24-49.69,2.12-5.25.68-5.25,2.43,0,3.11,14.42,1.88,33.42,1.71,49.69,2.12,19.19.49,37.67,1.21,56.31-.29C1162.12,14.84,1162.12,10.49,1147.16,9.28Z"/><path class="cls-4" d="M233,75.59c-5.39,1-7.85,5.64-11.26,9.52a101,101,0,0,0-8,10.46,1.89,1.89,0,0,0,0,2c3.62,4.94,8.34-.77,11.55-3.3,4.84-3.8,11.57-7.17,12.7-13.67A4.15,4.15,0,0,0,233,75.59Z"/><path class="cls-4" d="M242.44,165.44c-4.6-2.85-9.48,3.1-12.66,5.8-3.46,2.95-6.4,6.8-5.54,11.55.6,3.32,5.27,3.46,6.82.89,1.87-3.11,4.18-4.32,7.45-6.06a15.34,15.34,0,0,0,5.37-4.25A5.53,5.53,0,0,0,242.44,165.44Z"/><path class="cls-4" d="M106,237.26c-7,2.2-11.6,8.73-16.94,13.43-2.86,2.52,1,7.53,4.09,5.3,2.81-2,5.49-4.16,8.2-6.3s5.6-4,8.1-6.5S109.48,236.17,106,237.26Z"/><path class="cls-4" d="M433.55,70c-6,3.53-13.57,9.26-15.61,16.26-1,3.27,2.66,5.68,5.47,4.21s5.16-4.2,7.49-6.41A70.45,70.45,0,0,0,438.18,76C440.68,72.8,437.58,67.66,433.55,70Z"/><path class="cls-4" d="M676.5,97a3.91,3.91,0,0,0-2.85-2.85c-5-.75-7.47,2.82-10.67,6-2.53,2.51-6.24,5.57-5.43,9.51a2.75,2.75,0,0,0,2.61,2c3.17.31,6.6-3.05,9.16-4.62C673.33,104.59,677.25,102.4,676.5,97Z"/><path class="cls-4" d="M847.24,71.51c-3.66,2-6.61,5-10,7.34-2.81,1.94-6.36,3.73-6.91,7.48-.65,4.49,5.24,6.26,6.85,1.89.16-.44,2.38-1,2.81-1.2a31.74,31.74,0,0,0,4.65-2.45c3.79-2.23,6.73-4.49,8.38-8.65C854.32,72.53,850,70,847.24,71.51Z"/><path class="cls-4" d="M860.06,207.33c-3-.07-5.21,2-7.54,3.57a24.46,24.46,0,0,0-6.72,6.1c-2.69,3.71,3.11,7.87,6.2,4.78,3.8-3.78,11.71-3.91,12-10.54A3.94,3.94,0,0,0,860.06,207.33Z"/><path class="cls-4" d="M1137.83,92.28a3.63,3.63,0,0,0-2.84-.47c-1,.43-1.06.45-.18.08a4.29,4.29,0,0,0-2.34,1.8c-.28.37.07,0-.56.47a30.73,30.73,0,0,0-2.62,2.22c-2.84,2.4-6.28,4-9.35,6.08-4.2,2.82-.53,9.28,4,6.82,3.24-1.77,6.64-3.2,9.8-5.13a13.59,13.59,0,0,0,5-4.54C1140,97.3,1140.51,93.89,1137.83,92.28Z"/><path class="cls-4" d="M1104.87,328.64c.59-.89-1.17.73-1.45.95a45.49,45.49,0,0,0-4.57,4.1c-2.38,2.42-5.21,5.2-6.43,8.39-.84,2.21,1.8,5,4,4,3.47-1.42,6.24-4.49,9.37-6.57,2.75-1.82,6.32-2.59,7.89-5.73C1116.69,327.9,1108.52,323.11,1104.87,328.64Z"/><path class="cls-4" d="M1009.27,518.72a30.32,30.32,0,0,0-11.34,4.91c-3.13,2.27-6.6,3.93-9.21,6.87-3.06,3.47,1.08,9.81,5.22,6.77,2.84-2.09,6.27-2.89,9.46-4.3,4-1.75,6.63-4.59,9.88-7.35S1013,517.83,1009.27,518.72Z"/><path class="cls-4" d="M1138.09,548.93a18.37,18.37,0,0,0-7.5,5.43c-2.28,2.47-4.33,5.14-6.49,7.7-2.87,3.41,1.79,8.27,5,5,1.93-2,3.81-4.07,5.76-6.06,2.18-2.22,4.57-4.05,6.51-6.46S1141.57,547.67,1138.09,548.93Z"/><path class="cls-4" d="M1083.31,685.07c-6.55-9.41-17.77,5.55-24.91,6.3-3.44.37-4.87,5.83-.88,6.54,4.64.83,8.36-.73,12.38-3a36.29,36.29,0,0,1,6.45-3.22c2.43-.78,4.28-.32,6.38-2.14A3.68,3.68,0,0,0,1083.31,685.07Z"/><path class="cls-4" d="M1143.23,867.1c-4-4-10,.62-13.52,3-4.29,2.81-8.22,5.92-11.11,10.19-2.63,3.88,2.9,7.3,6.06,4.68a55.56,55.56,0,0,1,12.24-7.31C1140.24,876.07,1147.76,871.64,1143.23,867.1Z"/><path class="cls-4" d="M1023.13,948.37Z"/><path class="cls-4" d="M1025.62,941c-3.68-2.23-7.14-.21-10,2.27-2.43,2.08-5.06,5-6.23,8-.81,2,1.5,3.65,3.27,3.28,2.35-.5,4.39-2.42,6.31-3.81a22.49,22.49,0,0,1,3.16-1.91c.27-.13.88-.35,1-.41l-.06,0c.23-.08.71-.28,1.1-.44C1027.22,947.84,1028.62,942.82,1025.62,941Z"/><path class="cls-4" d="M924.48,793.45c-5.13,1.15-9.05,5.71-13.56,8.24-4.33,2.43-9,6.08-7.54,11.65a3.3,3.3,0,0,0,6.33,0c.71-2.62,5.75-3.79,7.94-4.74,3.34-1.44,6.14-3.8,9.67-4.84C934,801.82,931.19,791.94,924.48,793.45Z"/><path class="cls-4" d="M783.5,980.26c-.08-.39-.17-.78-.25-1.17a5.11,5.11,0,0,0-7.48-3c-4.73,3.17-8.69,6.87-13.69,9.64-3,1.66-8.49,5-6,9.09a2,2,0,0,0,2.73.71c2.61-1.94,5.8-3,8.88-4.07a30.21,30.21,0,0,0,4.41-1.8c2-1,5.09-4.1,7.4-4.08A4.22,4.22,0,0,0,783.5,980.26Z"/><path class="cls-4" d="M540,1046.7c-1.46-5.3-8-3.56-11.27-1.48s-5.43,5-8.38,7.23c-3.83,2.9-.58,9,3.85,6.6,3-1.64,5.54-3.91,8.52-5.54,1.32-.72,2.71-.62,4.08-1.18C539.1,1051.39,540.68,1049.27,540,1046.7Z"/><path class="cls-4" d="M223.38,954.31c.25-2-.85-3.34-2.36-4.86a3.64,3.64,0,0,0-6,1.91l-.48.29a16.82,16.82,0,0,1-3.26,1.27c-2.59.88-5.95,2.34-6.61,5.2a3.15,3.15,0,0,0,2.88,4,9.57,9.57,0,0,0,2.9-.47c.68-.15,2.11-.17,3.05-.25,3.27-.29,6-.73,8.56-2.91A4.38,4.38,0,0,0,223.38,954.31Z"/><path class="cls-4" d="M81.91,791.49a8,8,0,0,0-5.58,2c-1.36,1-2.37,2.4-4,3a2.15,2.15,0,0,0-.51,3.89c2.77,2,6.57.84,9.47-.17a3.21,3.21,0,0,0,3.85-1.49,7.57,7.57,0,0,0,.76-2A4.2,4.2,0,0,0,81.91,791.49Z"/><path class="cls-4" d="M86.21,368.37a3.42,3.42,0,0,0-3.41-.91c-.23.1-.46.2-.67.31a5.69,5.69,0,0,0-3.16,1,8.49,8.49,0,0,0-3.11,3.32,3.84,3.84,0,0,0,.58,4.52,3.71,3.71,0,0,0,4.52.58,4.84,4.84,0,0,1,.46-.24h.06a7,7,0,0,0,2.8-.62c-1.35.62,0,0,.32-.07a4.3,4.3,0,0,0,3.14-4.12A5.17,5.17,0,0,0,86.21,368.37Z"/><path class="cls-4" d="M836.87,883.17c4.07-4.46,8-9,11.93-13.66l1.09-1.28q5.63-6.75,11-13.71l1.22-1.59q5.37-7,10.46-14.26c.27-.38.54-.77.8-1.16q10.68-15.27,20.08-31.44l.26-.43c3-5.26,6-10.59,8.81-16,.25-.49.51-1,.77-1.45q4.13-7.94,8-16.05l.72-1.54q3.85-8.28,7.41-16.72l.26-.65q7.27-17.49,13.1-35.72c.09-.29.19-.59.29-.89q2.78-8.77,5.19-17.72l.45-1.66q2.37-8.87,4.38-17.86c.11-.49.21-1,.32-1.46,1.36-6.18,2.61-12.41,3.71-18.69h0a449.79,449.79,0,0,0,6.78-77.94c0-247.42-200.57-448-448-448-148.32,0-279.78,72.1-361.31,183.14a1.71,1.71,0,0,1-.11.14,450.23,450.23,0,0,0-29.64,46.06l-.42.76q-4.39,7.88-8.49,16h0q-8.17,16.17-15.06,33.07c-.18.46-.37.92-.56,1.37q-3.24,8.06-6.19,16.26c-.19.52-.37,1.05-.55,1.57Q77.61,448.31,73,465.54l-.48,1.76q-2.15,8.22-4,16.57L68,486.51q-1.8,8.36-3.3,16.81c-.11.58-.19,1.16-.29,1.73q-1.43,8.31-2.55,16.71c-.06.51-.14,1-.21,1.52-.73,5.66-1.33,11.36-1.85,17.09-.1,1.06-.2,2.11-.28,3.17q-.7,8.43-1.11,17c0,1-.07,2-.11,2.93-.23,5.94-.38,11.89-.38,17.89A451.29,451.29,0,0,0,63,649.53q2.55,16.69,6.31,33Q70.6,687.9,72,693.27q2.76,10.74,6,21.26t7,20.81c62.81,171.54,227.51,293.95,420.8,293.95,6.37,0,12.71-.16,19-.42l2.38-.1q9-.42,17.86-1.21l3.12-.27q8.76-.82,17.44-2l2.9-.41c5.9-.82,11.78-1.74,17.61-2.8.58-.1,1.15-.22,1.72-.33q8.85-1.63,17.56-3.61l1-.22c5.84-1.34,11.62-2.82,17.37-4.38l2.52-.69q8.31-2.31,16.5-5l2.8-.91q8.18-2.68,16.22-5.66l2.3-.88c5.56-2.1,11.07-4.28,16.52-6.59l.66-.29q8.22-3.51,16.26-7.33l1.39-.65c5.25-2.51,10.44-5.14,15.57-7.85l2.26-1.2q7.53-4,14.88-8.33L734,966.9q7.44-4.41,14.7-9.08l1.45-1q15.2-9.9,29.51-21c.44-.35.9-.68,1.34-1q6.85-5.34,13.48-11l1.79-1.51q6.57-5.6,12.91-11.43l1.51-1.41c4.34-4,8.62-8.14,12.79-12.34.17-.16.33-.34.5-.5q6.56-6.62,12.85-13.5Z"/></g></svg>