<?xml version="1.0" encoding="utf-8"?>
<!-- Generator: Adobe Illustrator 23.0.1, SVG Export Plug-In . SVG Version: 6.00 Build 0)  -->
<svg version="1.1" id="Layer_1" xmlns="http://www.w3.org/2000/svg" xmlns:xlink="http://www.w3.org/1999/xlink" x="0px" y="0px"
	 viewBox="0 0 1235.7 1164.3" style="enable-background:new 0 0 1235.7 1164.3;" xml:space="preserve">
<style type="text/css">
	.st0{fill:#0C0F38;}
	.st1{fill:#22215B;}
	.st2{fill:#267FE5;}
	.st3{fill:#25BFEC;}
	.st4{fill:url(#SVGID_1_);}
	.st5{fill:#A31FA9;}
	.st6{fill:#C840D3;}
	.st7{fill:#2979E4;}
	.st8{fill:#2C75E4;}
	.st9{fill:#8D139B;}
	.st10{fill:#A250EA;}
	.st11{fill:#6EE1F8;}
	.st12{fill:#6EE8FC;}
	.st13{fill:#93EFF9;}
	.st14{fill:#E4AE5E;}
	.st15{fill:#A31FA9;stroke:#B73DC1;stroke-miterlimit:10;}
	.st16{display:none;}
	.st17{display:inline;}
	.st18{fill:#A139FF;}
	.st19{fill:#594A41;}
	.st20{fill:url(#SVGID_2_);stroke:#FFFFFF;stroke-miterlimit:10;}
	.st21{fill:#392E27;}
	.st22{fill:#2F7FD7;}
	.st23{fill:#4ABF9F;}
	.st24{fill:#0C0D36;stroke:#8938A6;stroke-miterlimit:10;}
	.st25{fill:#0C0D36;}
</style>
<g id="Object">
	<title>record_player</title>
	<g id="record_base">
		<path class="st0" d="M49.6,32h1135.3c27.4,0,49.6,22.2,49.6,49.6v1033.1c0,27.4-22.2,49.6-49.6,49.6H49.6
			c-27.4,0-49.6-22.2-49.6-49.6V81.6C0,54.2,22.2,32,49.6,32z"/>
		<path class="st1" d="M50.8,0h1135.3c27.4,0,49.6,22.2,49.6,49.6v1033.1c0,27.4-22.2,49.6-49.6,49.6H50.8
			c-27.4,0-49.6-22.2-49.6-49.6V49.6C1.2,22.2,23.4,0,50.8,0z"/>
		<path class="st2" d="M77.7,26.9h1081.4c27.4,0,49.6,22.2,49.6,49.6v979.2c0,27.4-22.2,49.6-49.6,49.6H77.7
			c-27.4,0-49.6-22.2-49.6-49.6V76.5C28.2,49.1,50.4,26.9,77.7,26.9z"/>
		<path class="st3" d="M90.5,42.5h1056c27.4,0,49.6,22.2,49.6,49.6v948.1c0,27.4-22.2,49.6-49.6,49.6H90.5
			c-27.4,0-49.6-22.2-49.6-49.6V92.1C40.9,64.7,63.1,42.5,90.5,42.5z"/>
		
			<linearGradient id="SVGID_1_" gradientUnits="userSpaceOnUse" x1="617.0074" y1="901.0002" x2="619.5693" y2="-223.1069" gradientTransform="matrix(1 0 0 1 0 320)">
			<stop  offset="0" style="stop-color:#8B1E98"/>
			<stop  offset="0.1751" style="stop-color:#83269F"/>
			<stop  offset="0.4545" style="stop-color:#6C3EB0"/>
			<stop  offset="0.8011" style="stop-color:#4763CD"/>
			<stop  offset="1" style="stop-color:#2F7CE0"/>
		</linearGradient>
		<path class="st4" d="M106,56.5h1025c27.4,0,49.6,22.2,49.6,49.6v920c0,27.4-22.2,49.6-49.6,49.6H106c-27.4,0-49.6-22.2-49.6-49.6
			v-920C56.4,78.7,78.6,56.5,106,56.5z"/>
		
			<ellipse transform="matrix(0.7071 -0.7071 0.7071 0.7071 156.3312 777.4092)" class="st5" cx="1016.6" cy="200" rx="102.6" ry="102.6"/>
		<circle class="st2" cx="128.3" cy="149.9" r="59.1"/>
		<circle class="st5" cx="134.6" cy="137.5" r="59.1"/>
		<circle class="st6" cx="126.3" cy="995.4" r="59.1"/>
		
			<ellipse transform="matrix(0.7071 -0.7071 0.7071 0.7071 -655.6543 383.0931)" class="st2" cx="134.6" cy="983" rx="59.1" ry="59.1"/>
		<circle class="st5" cx="239.5" cy="1019.7" r="34.9"/>
		<circle class="st2" cx="245.8" cy="1007.2" r="34.9"/>
		<circle class="st5" cx="880.6" cy="1017.5" r="34.9"/>
		<circle class="st5" cx="992.5" cy="1017.5" r="34.9"/>
		<circle class="st5" cx="1104.4" cy="1017.5" r="34.9"/>
		<circle class="st7" cx="883" cy="996.4" r="34.9"/>
		<ellipse class="st2" cx="998.8" cy="1007.2" rx="34.9" ry="34.9"/>
		<circle class="st7" cx="1110.7" cy="1007.2" r="34.9"/>
		<path class="st8" d="M150,1017.3c-21-9.8-37.7-25-53.2-41.9c-6.4-7-10.2-14.4-13.1-22.3c-16.5,28.1-7.1,64.3,21,80.8
			c22.6,13.3,51.2,10,70.3-7.9C166.4,1024,158,1021,150,1017.3z"/>
		<path class="st9" d="M179.3,176c-10.5-0.4-20.8-2.7-30.5-6.6c-33.4-13.6-51.3-35.7-62.2-66.3c-19.1,26.4-13.2,63.3,13.2,82.4
			C124.7,203.5,159.3,199.4,179.3,176z"/>
		<path class="st10" d="M166.7,105.6c-2.9-9.3-14.8-12.6-23.2-14.7c-4.6-1.2-17.5-2.3-18.4,4.6c0,1,0.8,1.9,1.9,1.9l0,0
			c5.1-0.2,10.8,2,15.4,4c3.1,1.2,6.1,2.7,8.9,4.4c3.1,2.1,5.7,4.9,9.6,5.6C164.2,112,167.9,109.4,166.7,105.6z"/>
		<path class="st10" d="M180.8,122.1c-1.1-2.6-3.4-5.3-6.3-5.5c-2.1,0-3.7,1.7-3.7,3.7c0.1,1,0.4,2,0.9,2.9
			c-0.4-0.7,0.2,0.6,0.2,0.6c0.1,0.5,0.2,0.9,0.3,1.4c0.4,2,0.6,4.1,1.8,5.9c1.2,2,3.9,2.6,5.9,1.4c0.6-0.4,1.1-0.8,1.4-1.4
			C183.2,128.1,182.1,125,180.8,122.1z"/>
		<path class="st11" d="M169,957c-3.6-6-10.2-11.8-16.3-15.2c-6.3-3.6-15.1-5.7-22-2.8c-2.5,1.1-2.7,4.3,0,5.3
			c2.9,1.1,6,1.1,8.9,2.5c3.2,1.5,6.3,3.4,9,5.6c2.5,2.2,4.2,5.2,6.8,7.3s5.6,2.7,8.7,3.8C167.8,964.7,170.9,960.1,169,957z"/>
		<path class="st11" d="M177.7,981.2c-0.4-1.8-1.6-3.8-1.6-5.5c-0.1-2-1.7-3.6-3.8-3.6c-1.6,0-2.9,1.1-3.4,2.6
			c-0.6,2.2-0.6,4.5-0.2,6.7c0.3,2,0.8,5.6,3.8,6C176.1,987.9,178.6,984.6,177.7,981.2z"/>
		<path class="st12" d="M1134.4,996.2c-2-6.7-6.8-10.6-13.1-13.2c-4.3-1.7-12.2-4.4-15.3,0.5c-0.6,1.1-0.5,2.5,0.4,3.4
			c2.2,2.6,7,3.2,9.9,5c3.8,2.3,7.2,5.7,10.7,8.5C1130.2,1003.1,1135.7,1000.8,1134.4,996.2z"/>
		<path class="st11" d="M1022,999.5c-0.6-6.1-4-10.5-9-13.9c-4-2.8-11.3-6-16.2-4.3c-2,0.6-3.2,2.8-2.6,4.8c0.3,0.9,0.9,1.7,1.7,2.2
			c3.1,2,6.5,3.4,9.6,5.3c3.6,2.2,5.5,6.4,8.7,9C1017,1004.8,1022.4,1003.8,1022,999.5z"/>
		<path class="st11" d="M907.2,995.2c-3.4-9.9-13.8-15.4-23.9-12.8c-2,0.6-3.1,2.7-2.5,4.7c0.4,1.2,1.3,2.2,2.5,2.5
			c3.3,0.9,7,1,9.8,3.2c3,2.3,3.9,5.7,7.5,7.4C903.8,1001.7,908.6,999.2,907.2,995.2z"/>
		<path class="st11" d="M262,986.1c-3.7-2.6-10.7-8.3-15-4.1c-0.9,0.9-1.1,2.3-0.4,3.3c1.1,1.7,2.6,2.2,4.3,3.2
			c2.1,1.2,3.8,3.2,5.5,5s3.1,3.2,3.7,5.5c0.7,2.9,2.3,5.1,5.3,5.8c2.3,0.5,5-0.7,5.6-3.2C272.3,994.8,267,989.7,262,986.1z"/>
		<path class="st13" d="M983.5,9.4c-27-0.9-52.9-2-80.3-2c-29.9,0-59.9,0.4-89.8,0.7c-27.7,0.3-55.3,0.7-82.9,1.1
			c-27.6,0.5-58.1,0.3-84.7,2.2c-6.3,0.4-6.3,2.4,0,2.8c24.5,1.7,52.3,1.7,77.7,2.1c29.9,0.5,59.9,0.9,89.8,1.2
			c27.6,0.3,55.3,0.5,82.9,0.7c29.8,0.2,57.8-0.9,87.2-1.9C999,15.8,999,9.9,983.5,9.4z"/>
		<path class="st13" d="M1147.2,9.3c-18.6-1.5-37.1-0.8-56.3-0.3c-16.3,0.4-35.3,0.2-49.7,2.1c-5.2,0.7-5.2,2.4,0,3.1
			c14.4,1.9,33.4,1.7,49.7,2.1c19.2,0.5,37.7,1.2,56.3-0.3C1162.1,14.8,1162.1,10.5,1147.2,9.3z"/>
		<path class="st14" d="M1023.1,948.4"/>
		<g>
			<path class="st15" d="M233,75.6c-5.4,1-7.9,5.6-11.3,9.5c-2.9,3.3-5.6,6.8-8,10.5c-0.4,0.6-0.4,1.4,0,2c3.6,4.9,8.3-0.8,11.6-3.3
				c4.8-3.8,11.6-7.2,12.7-13.7c0.5-2.2-0.8-4.5-3.1-5C234.3,75.4,233.6,75.4,233,75.6z"/>
			<path class="st15" d="M242.4,165.4c-4.6-2.9-9.5,3.1-12.7,5.8c-3.5,2.9-6.4,6.8-5.5,11.6c0.6,3.3,5.3,3.5,6.8,0.9
				c1.9-3.1,4.2-4.3,7.4-6.1c2.1-1,3.9-2.4,5.4-4.2c1.8-2.5,1.3-5.9-1.2-7.7C242.6,165.6,242.5,165.5,242.4,165.4z"/>
			<path class="st15" d="M106,237.3c-7,2.2-11.6,8.7-16.9,13.4c-2.9,2.5,1,7.5,4.1,5.3c2.8-2,5.5-4.2,8.2-6.3s5.6-4,8.1-6.5
				S109.5,236.2,106,237.3z"/>
			<path class="st15" d="M433.5,70c-6,3.5-13.6,9.3-15.6,16.3c-1,3.3,2.7,5.7,5.5,4.2s5.2-4.2,7.5-6.4c2.6-2.5,5.1-5.2,7.3-8.1
				C440.7,72.8,437.6,67.7,433.5,70z"/>
			<path class="st15" d="M676.5,97c-0.3-1.4-1.4-2.5-2.8-2.8c-5-0.8-7.5,2.8-10.7,6c-2.5,2.5-6.2,5.6-5.4,9.5c0.3,1.2,1.4,2,2.6,2
				c3.2,0.3,6.6-3.1,9.2-4.6C673.3,104.6,677.2,102.4,676.5,97z"/>
			<path class="st15" d="M847.2,71.5c-3.7,2-6.6,5-10,7.3c-2.8,1.9-6.4,3.7-6.9,7.5c-0.7,4.5,5.2,6.3,6.8,1.9c0.2-0.4,2.4-1,2.8-1.2
				c1.6-0.7,3.2-1.5,4.7-2.4c3.8-2.2,6.7-4.5,8.4-8.7C854.3,72.5,850,70,847.2,71.5z"/>
			<path class="st15" d="M860.1,207.3c-3-0.1-5.2,2-7.5,3.6c-2.6,1.6-4.9,3.7-6.7,6.1c-2.7,3.7,3.1,7.9,6.2,4.8
				c3.8-3.8,11.7-3.9,12-10.5C864,209.1,862.2,207.3,860.1,207.3z"/>
			<path class="st15" d="M1137.8,92.3c-0.8-0.5-1.9-0.7-2.8-0.5c-1,0.4-1.1,0.4-0.2,0.1c-1,0.3-1.8,0.9-2.3,1.8
				c-0.3,0.4,0.1,0-0.6,0.5c-0.9,0.7-1.8,1.4-2.6,2.2c-2.8,2.4-6.3,4-9.3,6.1c-4.2,2.8-0.5,9.3,4,6.8c3.2-1.8,6.6-3.2,9.8-5.1
				c2-1.1,3.7-2.6,5-4.5C1140,97.3,1140.5,93.9,1137.8,92.3z"/>
			<path class="st15" d="M1104.9,328.6c0.6-0.9-1.2,0.7-1.4,1c-1.6,1.3-3.1,2.6-4.6,4.1c-2.4,2.4-5.2,5.2-6.4,8.4
				c-0.8,2.2,1.8,5,4,4c3.5-1.4,6.2-4.5,9.4-6.6c2.8-1.8,6.3-2.6,7.9-5.7C1116.7,327.9,1108.5,323.1,1104.9,328.6z"/>
			<path class="st15" d="M1009.3,518.7c-4.1,0.8-7.9,2.5-11.3,4.9c-3.1,2.3-6.6,3.9-9.2,6.9c-3.1,3.5,1.1,9.8,5.2,6.8
				c2.8-2.1,6.3-2.9,9.5-4.3c4-1.8,6.6-4.6,9.9-7.3S1013,517.8,1009.3,518.7z"/>
			<path class="st15" d="M1138.1,548.9c-2.9,1.1-5.5,3-7.5,5.4c-2.3,2.5-4.3,5.1-6.5,7.7c-2.9,3.4,1.8,8.3,5,5
				c1.9-2,3.8-4.1,5.8-6.1c2.2-2.2,4.6-4,6.5-6.5S1141.6,547.7,1138.1,548.9z"/>
			<path class="st15" d="M1083.3,685.1c-6.6-9.4-17.8,5.5-24.9,6.3c-3.4,0.4-4.9,5.8-0.9,6.5c4.6,0.8,8.4-0.7,12.4-3
				c2-1.3,4.2-2.4,6.4-3.2c2.4-0.8,4.3-0.3,6.4-2.1C1083.9,688.4,1084.2,686.5,1083.3,685.1z"/>
			<path class="st15" d="M1143.2,867.1c-4-4-10,0.6-13.5,3c-4.3,2.8-8.2,5.9-11.1,10.2c-2.6,3.9,2.9,7.3,6.1,4.7
				c3.7-3,7.9-5.4,12.2-7.3C1140.2,876.1,1147.8,871.6,1143.2,867.1z"/>
			<path class="st15" d="M1025.6,941c-3.7-2.2-7.1-0.2-10,2.3c-2.4,2.1-5.1,5-6.2,8c-0.8,2,1.5,3.7,3.3,3.3c2.3-0.5,4.4-2.4,6.3-3.8
				c1-0.7,2.1-1.4,3.2-1.9c0.3-0.1,0.9-0.3,1-0.4h-0.1c0.2-0.1,0.7-0.3,1.1-0.4C1027.2,947.8,1028.6,942.8,1025.6,941z"/>
			<path class="st15" d="M924.5,793.5c-5.1,1.2-9,5.7-13.6,8.2c-4.3,2.4-9,6.1-7.5,11.7c0.5,1.7,2.4,2.7,4.1,2.2
				c1.1-0.3,1.9-1.2,2.2-2.2c0.7-2.6,5.8-3.8,7.9-4.7c3.3-1.4,6.1-3.8,9.7-4.8C934,801.8,931.2,791.9,924.5,793.5z"/>
			<path class="st15" d="M783.5,980.3c-0.1-0.4-0.2-0.8-0.2-1.2c-0.8-2.7-3.6-4.3-6.3-3.5c-0.4,0.1-0.8,0.3-1.2,0.5
				c-4.7,3.2-8.7,6.9-13.7,9.6c-3,1.7-8.5,5-6,9.1c0.6,0.9,1.8,1.3,2.7,0.7c2.6-1.9,5.8-3,8.9-4.1c1.5-0.5,3-1.1,4.4-1.8
				c2-1,5.1-4.1,7.4-4.1c2.3,0,4.2-2,4.1-4.3C783.6,980.9,783.6,980.6,783.5,980.3z"/>
			<path class="st15" d="M540,1046.7c-1.5-5.3-8-3.6-11.3-1.5s-5.4,5-8.4,7.2c-3.8,2.9-0.6,9,3.8,6.6c3-1.6,5.5-3.9,8.5-5.5
				c1.3-0.7,2.7-0.6,4.1-1.2C539.1,1051.4,540.7,1049.3,540,1046.7z"/>
			<path class="st15" d="M223.4,954.3c0.2-2-0.9-3.3-2.4-4.9c-1.5-1.4-3.8-1.2-5.1,0.2c-0.4,0.5-0.7,1-0.9,1.7l-0.5,0.3
				c-1,0.5-2.1,1-3.3,1.3c-2.6,0.9-5.9,2.3-6.6,5.2c-0.5,1.7,0.5,3.4,2.2,3.9c0.2,0.1,0.5,0.1,0.7,0.1c1,0,2-0.2,2.9-0.5
				c0.7-0.2,2.1-0.2,3.1-0.2c3.3-0.3,6-0.7,8.6-2.9C223.2,957.4,223.7,955.8,223.4,954.3z"/>
			<path class="st15" d="M81.9,791.5c-2-0.1-4,0.6-5.6,2c-1.4,1-2.4,2.4-4,3c-1.1,0.3-1.8,1.5-1.4,2.7c0.2,0.5,0.5,0.9,0.9,1.2
				c2.8,2,6.6,0.8,9.5-0.2c1.5,0.5,3.1-0.1,3.8-1.5c0.3-0.6,0.6-1.3,0.8-2c0.6-2.2-0.8-4.5-3-5.1C82.5,791.5,82.2,791.5,81.9,791.5z
				"/>
			<path class="st15" d="M86.2,368.4c-0.9-0.9-2.2-1.3-3.4-0.9c-0.2,0.1-0.5,0.2-0.7,0.3c-1.1,0-2.2,0.4-3.2,1
				c-1.3,0.8-2.4,2-3.1,3.3c-0.8,1.5-0.6,3.3,0.6,4.5s3.1,1.4,4.5,0.6c0.1-0.1,0.3-0.2,0.5-0.2h0.1c1,0,1.9-0.2,2.8-0.6
				c-1.3,0.6,0,0,0.3-0.1c1.8-0.5,3.1-2.2,3.1-4.1C87.8,370.7,87.2,369.4,86.2,368.4z"/>
		</g>
	</g>
</g>
<g class="st16">
	<g id="record_place" class="st17">
		<circle class="st18" cx="505.9" cy="592.2" r="448"/>
		<circle class="st19" cx="505.9" cy="592.2" r="425.9"/>
		<circle class="st19" cx="505.9" cy="592.2" r="425.9"/>
		
			<linearGradient id="SVGID_2_" gradientUnits="userSpaceOnUse" x1="1141.88" y1="-170.1" x2="1993.6799" y2="-170.1" gradientTransform="matrix(6.123234e-17 -1 1 6.123234e-17 676 2159.98)">
			<stop  offset="0" style="stop-color:#00E9F8"/>
			<stop  offset="6.015652e-02" style="stop-color:#00CDF0"/>
			<stop  offset="0.1594" style="stop-color:#07A4E5"/>
			<stop  offset="0.2651" style="stop-color:#2680DB"/>
			<stop  offset="0.3767" style="stop-color:#3764D2"/>
			<stop  offset="0.4963" style="stop-color:#424CCC"/>
			<stop  offset="0.6276" style="stop-color:#493CC7"/>
			<stop  offset="0.7795" style="stop-color:#4E32C5"/>
			<stop  offset="1" style="stop-color:#4F2EC4"/>
		</linearGradient>
		<circle class="st20" cx="505.9" cy="592.2" r="425.9"/>
		<path class="st21" d="M505.9,959c-202.3,0-366.8-164.5-366.8-366.8s164.6-366.8,366.8-366.8S872.7,390,872.7,592.2
			S708.2,959,505.9,959z M505.9,233.6c-197.7,0-358.5,160.8-358.5,358.5s160.8,358.5,358.5,358.5s358.5-160.8,358.5-358.5
			S703.6,233.6,505.9,233.6L505.9,233.6z M505.9,898.9c-169.1,0-306.7-137.6-306.7-306.7s137.6-306.7,306.7-306.7
			S812.6,423,812.6,592.2S675,898.9,505.9,898.9L505.9,898.9z M505.9,293.7c-164.6,0-298.4,133.9-298.4,298.4
			s133.9,298.4,298.4,298.4s298.4-133.9,298.4-298.4S670.5,293.7,505.9,293.7L505.9,293.7z M505.9,839.4
			c-136.3,0-247.2-110.9-247.2-247.2s110.9-247.3,247.2-247.3s247.2,110.9,247.2,247.3S642.2,839.4,505.9,839.4L505.9,839.4z
			 M505.9,353.2c-131.8,0-239,107.2-239,239s107.2,239,239,239s239-107.2,239-239S637.7,353.2,505.9,353.2z M505.9,777.6
			c-102.2,0-185.4-83.2-185.4-185.4s83.2-185.4,185.4-185.4S691.3,490,691.3,592.2S608.1,777.6,505.9,777.6L505.9,777.6z M505.9,415
			c-97.7,0-177.1,79.5-177.1,177.1s79.5,177.1,177.1,177.1S683,689.8,683,592.2S603.6,415,505.9,415L505.9,415z"/>
		<path class="st22" d="M505.9,959c-202.3,0-366.8-164.5-366.8-366.8s164.6-366.8,366.8-366.8S872.7,390,872.7,592.2
			S708.2,959,505.9,959z M505.9,233.6c-197.7,0-358.5,160.8-358.5,358.5s160.8,358.5,358.5,358.5s358.5-160.8,358.5-358.5
			S703.6,233.6,505.9,233.6L505.9,233.6z M505.9,898.9c-169.1,0-306.7-137.6-306.7-306.7s137.6-306.7,306.7-306.7
			S812.6,423,812.6,592.2S675,898.9,505.9,898.9L505.9,898.9z M505.9,293.7c-164.6,0-298.4,133.9-298.4,298.4
			s133.9,298.4,298.4,298.4s298.4-133.9,298.4-298.4S670.5,293.7,505.9,293.7L505.9,293.7z M505.9,839.4
			c-136.3,0-247.2-110.9-247.2-247.2s110.9-247.3,247.2-247.3s247.2,110.9,247.2,247.3S642.2,839.4,505.9,839.4L505.9,839.4z
			 M505.9,353.2c-131.8,0-239,107.2-239,239s107.2,239,239,239s239-107.2,239-239S637.7,353.2,505.9,353.2z M505.9,777.6
			c-102.2,0-185.4-83.2-185.4-185.4s83.2-185.4,185.4-185.4S691.3,490,691.3,592.2S608.1,777.6,505.9,777.6L505.9,777.6z M505.9,415
			c-97.7,0-177.1,79.5-177.1,177.1s79.5,177.1,177.1,177.1S683,689.8,683,592.2S603.6,415,505.9,415L505.9,415z"/>
		<circle class="st23" cx="505.9" cy="592.2" r="144"/>
		<circle class="st24" cx="505.9" cy="592.2" r="144"/>
		
			<ellipse transform="matrix(0.3162 -0.9487 0.9487 0.3162 -215.8872 884.8761)" class="st22" cx="505.9" cy="592.2" rx="15.5" ry="15.5"/>
		<path class="st22" d="M851.7,686.9C810,838.8,670.8,950.7,505.9,950.7c-197.7,0-358.5-160.8-358.5-358.5
			c-0.1-71,21-140.4,60.6-199.3c-1.8-2.3-3.5-4.7-5.3-7c-41.6,60.8-63.8,132.7-63.7,206.3C139,794.4,303.6,959,505.8,959
			c170,0,313.3-116.3,354.8-273.4C857.7,686,854.7,686.5,851.7,686.9z"/>
		<path class="st22" d="M505.9,777.6c62.7,0,121.2-31.8,155.3-84.4c-3.1-0.4-6.1-0.7-9.2-1.1c-33,48.3-87.7,77.2-146.1,77.2
			c-97.7,0-177.1-79.5-177.1-177.1c0-19.4,3.2-38.7,9.5-57c-2.2-2-4.5-4-6.7-6c-7.3,20.2-11,41.5-11,63
			C320.5,694.4,403.7,777.6,505.9,777.6z"/>
		<path class="st22" d="M505.9,898.9c133.5,0,247.3-85.8,289.3-205c-3,0.3-6,0.5-9,0.7c-41.9,114.3-151.7,196-280.3,196
			c-164.6,0-298.4-133.9-298.4-298.4c0-52.6,13.9-104.3,40.4-149.7c-1.9-2.2-3.8-4.5-5.7-6.8c-28.2,47.3-43.1,101.4-43,156.5
			C199.2,761.3,336.8,898.9,505.9,898.9z"/>
		<path class="st22" d="M505.9,839.4c98.9,0,184.4-58.4,223.9-142.6c-3,0-6.1,0-9.1,0c-38.9,79.4-120.5,134.3-214.8,134.3
			c-131.8,0-239-107.2-239-239c0-35.6,7.9-70.8,23.3-102.9c-2-2.1-4.1-4.2-6.1-6.4c-16.8,34-25.5,71.3-25.5,109.2
			C258.7,728.5,369.6,839.4,505.9,839.4z"/>
		<path class="st25" d="M615.1,686c-29-5.8-57.3-14.8-84.4-26.7c-59.1-26.3-114.5-60.2-164.9-100.8c-18.6,77.3,29,155.1,106.4,173.7
			C524.8,744.8,580,726.9,615.1,686z"/>
		<g id="turning_path">
			<path class="st25" d="M812.2,359c-12.9-35-51.7-61.9-84.1-77.1c-3.3-1.6-6.3,3.2-2.9,5c34.9,18.7,56.7,45.4,80.6,75.8
				C808.1,365.7,813.4,362.5,812.2,359z"/>
			<path class="st25" d="M811,319.2c-9.3-12.4-21.9-22.9-34.4-31.8c-2.4-1.7-5.4,2.2-3.1,4.1c6,4.7,11.7,9.9,17,15.4
				c5.4,5.6,10.2,11.7,16.5,16.4C809.3,325,812.8,321.5,811,319.2z"/>
			<path class="st25" d="M794.6,422.2c-11.9-41.7-54.7-76.2-91.5-95.6c-3.1-1.6-5.8,2.9-2.8,4.7c19,11,35.3,24.6,50.4,40.4
				c15.6,16.3,25.3,34.4,36.7,53.5C789.7,429,795.8,426.5,794.6,422.2z"/>
			<path class="st25" d="M804.4,452c-1.2-2.6-5.6-0.7-4.6,2c5.3,13.7,8.1,27.2,11.3,41.5c0.6,2.9,5.4,2.3,5.2-0.7
				C815.3,479.2,810.8,466.1,804.4,452z"/>
			<path class="st25" d="M726.2,436.2c-13.2-22.3-30-39.1-50.1-55.4c-14.4-11.6-33-26.3-52.2-27.3c-2.7-0.1-3.3,4.1-0.6,4.7
				c21.5,4.6,41.5,23.1,57.4,37.4c15.1,13.6,26.7,29.7,40.4,44.4C723.8,442.7,728.1,439.2,726.2,436.2z"/>
			<path class="st25" d="M697.2,502.5c-1.9-3.7-7.1-0.5-5.5,3.2c11.2,24.7,16.5,49.2,19.3,76.1c0.1,1.8,1.6,3.1,3.4,3
				c1.6-0.1,2.9-1.4,3-3C720.1,553.7,709.8,527.2,697.2,502.5z"/>
			<path class="st25" d="M650,513.8c-5.3-13.2-14.4-21.4-24.6-30.8c-0.8-0.8-2-0.8-2.7,0s-0.8,2,0,2.7c4.1,4.3,8.4,8.5,12.3,13
				c4.4,5.1,7.3,11.2,10.9,16.9C647.2,517.7,651,516.3,650,513.8z"/>
			<path class="st25" d="M394.8,770.6c-12.8-10-25.8-19.5-37.8-30.4c-13.7-12.5-23.5-27.8-33.9-43c-0.9-1.5-2.9-2-4.4-1.1
				s-2,2.8-1.1,4.3c16.1,32,41.2,58.6,72.2,76.5C393.8,779.3,398.5,773.5,394.8,770.6z"/>
			<path class="st25" d="M444.2,794.8c-6.4-3.7-13.2-5.9-20.3-7.8c-4-1.1-5.7,5-1.7,6.2c6.7,2.1,13.1,4.9,19.8,7
				C445.2,801.2,447.1,796.4,444.2,794.8z"/>
			<path class="st25" d="M336.5,804c-12-10.1-24.2-20-35-31.5c-13.6-14.4-22.3-31.8-31-49.5c-1.9-4-7.5-0.5-5.8,3.4
				c15.2,34.6,34.6,63.3,67.4,83.3C335.6,812,339.7,806.8,336.5,804z"/>
			<path class="st25" d="M344,794.5c-11.1-8.8-22.9-17.2-33.2-27c-2.4-2.3-5.9,1.2-3.7,3.7c9.9,11.1,21.1,19.6,33.7,27.3
				C343.3,800,346.3,796.3,344,794.5z"/>
			<path class="st25" d="M309.8,858.5c-39.6-26.7-70.6-60.9-91.7-104c-1.3-2.7-6-0.7-4.9,2c18.5,44,50.2,85.7,93,108.1
				C310.3,866.8,313.6,861.1,309.8,858.5z"/>
			<path class="st25" d="M370.3,894.6c-10.5-8.7-22.7-15.2-34.9-21.1c-3.5-1.7-6.5,3.3-3.1,5.2c11.7,6.4,22.5,14.4,34.1,20.8
				C369.5,901.2,373.2,896.9,370.3,894.6z"/>
			<path class="st25" d="M308.6,922c-34.9-18-65.8-35.6-93.6-63.8c-2.9-3-7.4,1.5-4.6,4.6c28,30,57.7,49.9,95.7,65
				C309.5,929.2,311.7,923.7,308.6,922z"/>
			<path class="st25" d="M200.4,831.5c-4.7-2-6.4-8.4-8.3-12.7c-1.2-2.7-5.7-0.8-4.7,2c1.9,5.3,4.1,16.2,11.8,15.2
				C201.2,835.7,202.9,832.6,200.4,831.5z"/>
			<path class="st22" d="M509,558.9c-2.4,0-3.1,3.9-0.6,4.3c7.3,1.1,13.3,5.9,18.5,10.7c6.8,6.2,8.5,13.9,11.5,22.1
				c0.8,2.2,4.8,3,5.2,0C546.2,579,525.4,559,509,558.9z"/>
			<path class="st22" d="M543.1,556.3c-1.8-1.1-4,1.6-2.3,3c3.9,3,7,7,8.8,11.6c0.6,1.6,3.2,2,3.6,0
				C554.5,564.5,548.1,559.3,543.1,556.3z"/>
		</g>
	</g>
</g>
</svg>
