<?xml version="1.0" encoding="utf-8"?>
<!-- Generator: Adobe Illustrator 23.0.1, SVG Export Plug-In . SVG Version: 6.00 Build 0)  -->
<svg version="1.1" id="Object" xmlns="http://www.w3.org/2000/svg" xmlns:xlink="http://www.w3.org/1999/xlink" x="0px" y="0px"
	 viewBox="0 0 896 896" style="enable-background:new 0 0 896 896;" xml:space="preserve">
<style type="text/css">
	.st0{fill:#58068E;}
	.st1{fill:#594A42;}
	.st2{fill:url(#SVGID_1_);stroke:#FFFFFF;stroke-miterlimit:10;}
	.st3{fill:#392E27;}
	.st4{fill:#25BFEC;}
	.st5{fill:#50BFA0;}
	.st6{fill:#267FE5;stroke:#893DA5;stroke-miterlimit:10;}
	.st7{fill:#22215B;}
	.st8{fill:#2C75E4;}
	.st9{fill:#6EE1F8;}
</style>
<title>record_place</title>
<g id="record_place">
	<circle class="st0" cx="448" cy="448" r="448"/>
	<circle class="st1" cx="448" cy="448" r="425.9"/>
	<circle class="st1" cx="448" cy="448" r="425.9"/>
	
		<linearGradient id="SVGID_1_" gradientUnits="userSpaceOnUse" x1="22.1108" y1="447.9908" x2="873.8708" y2="447.9908" gradientTransform="matrix(6.123234e-17 -1 1 6.123234e-17 0 895.9817)">
		<stop  offset="0" style="stop-color:#00EAF7"/>
		<stop  offset="6.015652e-02" style="stop-color:#0CCEEF"/>
		<stop  offset="0.1594" style="stop-color:#1EA6E3"/>
		<stop  offset="0.2651" style="stop-color:#2D83D9"/>
		<stop  offset="0.3767" style="stop-color:#3A67D0"/>
		<stop  offset="0.4963" style="stop-color:#4351CA"/>
		<stop  offset="0.6276" style="stop-color:#4A42C5"/>
		<stop  offset="0.7795" style="stop-color:#4E39C3"/>
		<stop  offset="1" style="stop-color:#4F36C2"/>
	</linearGradient>
	<circle class="st2" cx="448" cy="448" r="425.9"/>
	<path class="st3" d="M448,814.8C245.7,814.8,81.2,650.3,81.2,448S245.7,81.2,448,81.2S814.8,245.7,814.8,448S650.3,814.8,448,814.8
		z M448,89.5C250.3,89.5,89.5,250.3,89.5,448S250.3,806.5,448,806.5S806.5,645.7,806.5,448S645.7,89.5,448,89.5L448,89.5z
		 M448,754.7c-169.1,0-306.7-137.6-306.7-306.7S278.9,141.3,448,141.3S754.7,278.9,754.7,448S617.1,754.7,448,754.7L448,754.7z
		 M448,149.6c-164.6,0-298.4,133.9-298.4,298.4S283.4,746.4,448,746.4S746.4,612.5,746.4,448S612.5,149.6,448,149.6L448,149.6z
		 M448,695.2c-136.3,0-247.2-110.9-247.2-247.2S311.7,200.7,448,200.7S695.2,311.7,695.2,448S584.3,695.2,448,695.2L448,695.2z
		 M448,209c-131.8,0-239,107.2-239,239s107.2,239,239,239s239-107.2,239-239S579.8,209,448,209z M448,633.4
		c-102.2,0-185.4-83.2-185.4-185.4S345.7,262.6,448,262.6S633.4,345.7,633.4,448S550.2,633.4,448,633.4L448,633.4z M448,270.8
		c-97.7,0-177.1,79.5-177.1,177.1S350.3,625.1,448,625.1S625.1,545.7,625.1,448S545.7,270.9,448,270.8L448,270.8z"/>
	<path class="st4" d="M448,814.8C245.7,814.8,81.2,650.3,81.2,448S245.7,81.2,448,81.2S814.8,245.7,814.8,448S650.3,814.8,448,814.8
		z M448,89.5C250.3,89.5,89.5,250.3,89.5,448S250.3,806.5,448,806.5S806.5,645.7,806.5,448S645.7,89.5,448,89.5L448,89.5z
		 M448,754.7c-169.1,0-306.7-137.6-306.7-306.7S278.9,141.3,448,141.3S754.7,278.9,754.7,448S617.1,754.7,448,754.7L448,754.7z
		 M448,149.6c-164.6,0-298.4,133.9-298.4,298.4S283.4,746.4,448,746.4S746.4,612.5,746.4,448S612.5,149.6,448,149.6L448,149.6z
		 M448,695.2c-136.3,0-247.2-110.9-247.2-247.2S311.7,200.7,448,200.7S695.2,311.7,695.2,448S584.3,695.2,448,695.2L448,695.2z
		 M448,209c-131.8,0-239,107.2-239,239s107.2,239,239,239s239-107.2,239-239S579.8,209,448,209z M448,633.4
		c-102.2,0-185.4-83.2-185.4-185.4S345.7,262.6,448,262.6S633.4,345.7,633.4,448S550.2,633.4,448,633.4L448,633.4z M448,270.8
		c-97.7,0-177.1,79.5-177.1,177.1S350.3,625.1,448,625.1S625.1,545.7,625.1,448S545.7,270.9,448,270.8L448,270.8z"/>
	<circle class="st5" cx="448" cy="448" r="144"/>
	<circle class="st6" cx="448" cy="448" r="144"/>
	<circle class="st7" cx="448" cy="448" r="15.5"/>
	<path class="st4" d="M793.8,542.8C752.1,694.6,612.9,806.5,448,806.5C250.3,806.5,89.5,645.7,89.5,448c-0.1-71,21-140.4,60.7-199.3
		c-1.8-2.3-3.5-4.7-5.3-7C103.3,302.5,81.1,374.4,81.2,448c0,202.2,164.6,366.8,366.8,366.8c170,0,313.3-116.3,354.8-273.4
		C799.8,541.8,796.8,542.3,793.8,542.8z"/>
	<path class="st4" d="M448,633.4c62.7,0,121.2-31.8,155.3-84.4c-3.1-0.4-6.1-0.7-9.2-1.1c-33,48.3-87.7,77.2-146.1,77.2
		c-97.7,0-177.1-79.5-177.1-177.1c0-19.4,3.2-38.6,9.5-57c-2.2-2-4.5-4-6.7-6c-7.3,20.2-11,41.5-11,63
		C262.6,550.2,345.7,633.4,448,633.4z"/>
	<path class="st4" d="M448,754.7c133.5,0,247.3-85.8,289.3-205c-3,0.3-6,0.5-9,0.7c-41.9,114.3-151.7,196-280.3,196
		c-164.6,0-298.4-133.9-298.4-298.4c0-52.6,13.9-104.3,40.4-149.7c-1.9-2.2-3.8-4.5-5.7-6.8c-28.2,47.3-43.1,101.4-43.1,156.5
		C141.3,617.1,278.9,754.7,448,754.7z"/>
	<path class="st4" d="M448,695.2c98.9,0,184.4-58.4,223.9-142.6c-3,0-6.1,0-9.1,0C623.9,632.1,542.2,687,448,687
		c-131.8,0-239-107.2-239-239c0-35.6,7.9-70.8,23.3-102.9c-2-2.1-4.1-4.2-6.1-6.4c-16.8,34-25.5,71.3-25.5,109.2
		C200.7,584.3,311.7,695.2,448,695.2z"/>
	<path class="st8" d="M557.2,541.8c-29-5.8-57.3-14.8-84.4-26.7c-59.1-26.3-114.5-60.2-164.9-100.8c-18.6,77.3,29,155.1,106.4,173.7
		C466.9,600.6,522,582.8,557.2,541.8z"/>
	<g id="turning_path">
		<path class="st9" d="M754.2,214.9c-12.9-35-51.7-61.9-84.1-77.1c-3.3-1.6-6.3,3.2-2.9,5c34.9,18.7,56.7,45.4,80.6,75.8
			C750.2,221.6,755.5,218.3,754.2,214.9z"/>
		<path class="st9" d="M753.1,175c-9.3-12.4-21.9-22.9-34.4-31.8c-2.4-1.7-5.4,2.2-3.1,4.1c6,4.7,11.7,9.9,17,15.4
			c5.4,5.6,10.2,11.7,16.5,16.4C751.4,180.8,754.9,177.3,753.1,175z"/>
		<path class="st9" d="M736.7,278.1c-11.9-41.7-54.7-76.2-91.5-95.6c-3.1-1.6-5.8,2.9-2.8,4.7c19,11,35.3,24.6,50.4,40.4
			c15.6,16.3,25.3,34.4,36.7,53.5C731.8,284.8,737.9,282.3,736.7,278.1z"/>
		<path class="st9" d="M746.5,307.9c-1.2-2.6-5.6-0.7-4.6,2c5.3,13.7,8.1,27.2,11.3,41.5c0.6,2.9,5.4,2.3,5.2-0.7
			C757.3,335.1,752.9,321.9,746.5,307.9z"/>
		<path class="st9" d="M668.3,292c-13.2-22.3-30-39.1-50.1-55.4c-14.4-11.6-33-26.3-52.2-27.3c-2.7-0.1-3.3,4.1-0.6,4.7
			c21.5,4.6,41.5,23.1,57.4,37.4c15.1,13.6,26.7,29.7,40.4,44.4C665.8,298.5,670.2,295.1,668.3,292z"/>
		<path class="st9" d="M639.3,358.3c-1.9-3.7-7.1-0.5-5.5,3.2c11.2,24.7,16.5,49.2,19.3,76.1c0.1,1.8,1.6,3.1,3.4,3
			c1.6-0.1,2.9-1.4,3-3C662.2,409.5,651.9,383,639.3,358.3z"/>
		<path class="st9" d="M592.1,369.7c-5.3-13.2-14.4-21.4-24.6-30.8c-0.8-0.8-2-0.8-2.7,0s-0.8,2,0,2.7c4.1,4.3,8.4,8.5,12.3,13
			c4.4,5.1,7.3,11.2,10.9,16.9C589.3,373.5,593.1,372.1,592.1,369.7z"/>
		<path class="st9" d="M336.9,626.4c-12.8-10-25.8-19.5-37.8-30.4c-13.7-12.5-23.5-27.8-33.9-43c-0.9-1.5-2.9-2-4.4-1.1
			c-1.5,0.9-2,2.8-1.1,4.3c16.1,32,41.2,58.6,72.2,76.5C335.8,635.1,340.6,629.4,336.9,626.4z"/>
		<path class="st9" d="M386.3,650.6c-6.4-3.7-13.2-5.9-20.3-7.8c-4-1.1-5.7,5-1.7,6.2c6.7,2.1,13.1,4.9,19.8,7
			C387.3,657.1,389.2,652.3,386.3,650.6z"/>
		<path class="st9" d="M278.6,659.9c-12-10.1-24.2-20-35-31.5c-13.6-14.4-22.3-31.8-31-49.5c-1.9-4-7.5-0.5-5.8,3.4
			c15.2,34.6,34.6,63.3,67.4,83.3C277.6,667.8,281.8,662.6,278.6,659.9z"/>
		<path class="st9" d="M286.1,650.3c-11.1-8.8-22.9-17.2-33.2-27c-2.4-2.3-5.9,1.2-3.7,3.7c9.9,11.1,21.1,19.6,33.7,27.3
			C285.4,655.9,288.4,652.1,286.1,650.3z"/>
		<path class="st9" d="M251.9,714.3c-39.6-26.7-70.6-60.9-91.7-104c-1.3-2.7-6-0.7-4.9,2c18.5,44,50.2,85.7,93,108.1
			C252.4,722.6,255.7,716.9,251.9,714.3z"/>
		<path class="st9" d="M312.4,750.4c-10.5-8.7-22.7-15.2-34.9-21.1c-3.5-1.7-6.5,3.3-3.1,5.2c11.7,6.4,22.5,14.4,34.1,20.8
			C311.6,757.1,315.3,752.8,312.4,750.4z"/>
		<path class="st9" d="M250.6,777.9c-34.9-18-65.8-35.6-93.6-63.8c-2.9-3-7.4,1.5-4.6,4.6c28,30,57.7,49.9,95.7,65
			C251.6,785,253.8,779.5,250.6,777.9z"/>
		<path class="st9" d="M142.5,687.4c-4.7-2-6.4-8.4-8.3-12.7c-1.2-2.7-5.7-0.8-4.7,2c1.9,5.3,4.1,16.2,11.8,15.2
			C143.3,691.6,145,688.4,142.5,687.4z"/>
		<path class="st9" d="M451.1,414.7c-2.4,0-3.1,3.9-0.6,4.3c7.3,1.1,13.3,5.9,18.5,10.7c6.8,6.2,8.5,13.9,11.5,22.1
			c0.8,2.2,4.8,3,5.2,0C488.3,434.9,467.5,414.9,451.1,414.7z"/>
		<path class="st9" d="M485.2,412.2c-1.8-1.1-4,1.6-2.3,3c3.9,3,7,7,8.9,11.6c0.6,1.6,3.2,2,3.6,0
			C496.6,420.3,490.2,415.2,485.2,412.2z"/>
	</g>
</g>
</svg>
