<svg id="Object" xmlns="http://www.w3.org/2000/svg" viewBox="0 0 895.97 895.97"><defs><style>.cls-1{fill:#50bfa0;}.cls-2{fill:#594a42;}.cls-3{fill:#392e27;}.cls-4{fill:#00a67e;}.cls-5{fill:#4e4039;}.cls-6{fill:#312620;}.cls-7{fill:#6e5b51;}.cls-8{fill:#92d3c7;}</style></defs><title>record_place</title><g id="record_place"><circle class="cls-1" cx="447.99" cy="447.99" r="447.99"/><circle class="cls-2" cx="447.99" cy="447.99" r="425.88"/><circle class="cls-2" cx="447.99" cy="447.99" r="425.88"/><circle class="cls-2" cx="447.99" cy="447.99" r="425.88"/><path class="cls-3" d="M448,814.8C245.72,814.8,81.17,650.25,81.17,448S245.72,81.17,448,81.17,814.8,245.72,814.8,448,650.25,814.8,448,814.8Zm0-725.34C250.29,89.46,89.46,250.29,89.46,448S250.29,806.51,448,806.51,806.51,645.68,806.51,448,645.68,89.46,448,89.46Zm0,665.24C278.86,754.7,141.27,617.11,141.27,448S278.86,141.27,448,141.27,754.7,278.86,754.7,448,617.11,754.7,448,754.7Zm0-605.14c-164.56,0-298.43,133.87-298.43,298.43S283.43,746.41,448,746.41,746.41,612.54,746.41,448,612.54,149.56,448,149.56Zm0,545.68c-136.34,0-247.25-110.92-247.25-247.25S311.65,200.73,448,200.73,695.23,311.65,695.23,448,584.32,695.24,448,695.24ZM448,209c-131.77,0-239,107.2-239,239s107.2,239,239,239,239-107.2,239-239S579.75,209,448,209Zm0,424.39c-102.25,0-185.43-83.18-185.43-185.42S345.74,262.56,448,262.56,633.41,345.74,633.41,448,550.23,633.41,448,633.41Zm0-362.56c-97.68,0-177.14,79.46-177.14,177.14S350.31,625.12,448,625.12,625.12,545.66,625.12,448,545.66,270.85,448,270.85Z"/><path class="cls-3" d="M448,814.8C245.72,814.8,81.17,650.25,81.17,448S245.72,81.17,448,81.17,814.8,245.72,814.8,448,650.25,814.8,448,814.8Zm0-725.34C250.29,89.46,89.46,250.29,89.46,448S250.29,806.51,448,806.51,806.51,645.68,806.51,448,645.68,89.46,448,89.46Zm0,665.24C278.86,754.7,141.27,617.11,141.27,448S278.86,141.27,448,141.27,754.7,278.86,754.7,448,617.11,754.7,448,754.7Zm0-605.14c-164.56,0-298.43,133.87-298.43,298.43S283.43,746.41,448,746.41,746.41,612.54,746.41,448,612.54,149.56,448,149.56Zm0,545.68c-136.34,0-247.25-110.92-247.25-247.25S311.65,200.73,448,200.73,695.23,311.65,695.23,448,584.32,695.24,448,695.24ZM448,209c-131.77,0-239,107.2-239,239s107.2,239,239,239,239-107.2,239-239S579.75,209,448,209Zm0,424.39c-102.25,0-185.43-83.18-185.43-185.42S345.74,262.56,448,262.56,633.41,345.74,633.41,448,550.23,633.41,448,633.41Zm0-362.56c-97.68,0-177.14,79.46-177.14,177.14S350.31,625.12,448,625.12,625.12,545.66,625.12,448,545.66,270.85,448,270.85Z"/><circle class="cls-1" cx="447.99" cy="447.99" r="144.03" transform="translate(-185.56 447.99) rotate(-45)"/><circle class="cls-1" cx="447.99" cy="447.99" r="144.03" transform="translate(-185.56 447.99) rotate(-45)"/><circle class="cls-2" cx="447.99" cy="447.99" r="15.54" transform="translate(-41.84 849.79) rotate(-84.36)"/><g id="half_circle"><path class="cls-4" d="M0,448C0,695.4,200.57,896,448,896c220.82,0,404.32-159.78,441.21-370-22.41,4-44.83,8-67.19,12.09-113,20.77-242.44,24.59-349.15-22.88C362,465.82,270.11,392.92,191.89,300.49c-34.75-41.07-68.66-84.26-94.08-131.89A446,446,0,0,0,0,448Z"/><path class="cls-5" d="M822,538c-113,20.77-242.44,24.59-349.15-22.88C362,465.82,270.11,392.92,191.89,300.49c-29.63-35-58.59-71.59-82.25-111.13A423.93,423.93,0,0,0,22.11,448c0,235.2,190.67,425.87,425.88,425.87,207.1,0,379.65-147.84,417.93-343.74C851.28,532.73,836.63,535.33,822,538Z"/></g><path class="cls-6" d="M793.77,542.77C752.1,694.61,612.87,806.51,448,806.51,250.29,806.51,89.46,645.68,89.46,448a356.4,356.4,0,0,1,60.65-199.31q-2.66-3.5-5.26-7A364.73,364.73,0,0,0,81.17,448C81.17,650.25,245.72,814.8,448,814.8c170,0,313.35-116.26,354.75-273.44Q798.27,542.08,793.77,542.77Z"/><path class="cls-6" d="M448,633.41A185.4,185.4,0,0,0,603.34,549q-4.61-.53-9.2-1.12A177.06,177.06,0,0,1,448,625.12c-97.68,0-177.14-79.46-177.14-177.13a176.2,176.2,0,0,1,9.46-57c-2.25-2-4.5-4-6.72-6a184.31,184.31,0,0,0-11,63C262.56,550.23,345.74,633.41,448,633.41Z"/><path class="cls-6" d="M448,754.7c133.49,0,247.27-85.75,289.32-205.05-3,.27-6,.51-9,.74-41.88,114.27-151.73,196-280.32,196-164.56,0-298.43-133.87-298.43-298.42A296.49,296.49,0,0,1,190,298.24c-1.89-2.24-3.78-4.51-5.66-6.77A304.77,304.77,0,0,0,141.27,448C141.27,617.11,278.86,754.7,448,754.7Z"/><path class="cls-6" d="M448,695.24c98.93,0,184.43-58.44,223.92-142.58-3,0-6.09,0-9.14,0C623.91,632.07,542.24,687,448,687c-131.77,0-239-107.2-239-239a237.47,237.47,0,0,1,23.31-102.86q-3.06-3.15-6.09-6.35A245.63,245.63,0,0,0,200.74,448C200.74,584.32,311.65,695.24,448,695.24Z"/><path class="cls-4" d="M557.23,541.8a411.26,411.26,0,0,1-84.37-26.66A746.46,746.46,0,0,1,308,414.3,144,144,0,0,0,557.23,541.8Z"/><g id="turning_path"><path class="cls-7" d="M754.24,214.86c-12.9-35-51.72-61.91-84.07-77.14-3.35-1.58-6.3,3.23-2.94,5,34.9,18.7,56.73,45.43,80.62,75.83C750.21,221.57,755.53,218.34,754.24,214.86Z"/><path class="cls-7" d="M753.13,175c-9.31-12.36-21.86-22.89-34.42-31.82-2.39-1.7-5.44,2.23-3.14,4.07a174.27,174.27,0,0,1,17,15.38c5.43,5.65,10.17,11.72,16.49,16.44C751.4,180.82,754.9,177.34,753.13,175Z"/><path class="cls-7" d="M736.69,278.05C724.83,236.3,682,201.89,645.2,182.44c-3.09-1.63-5.79,2.93-2.75,4.7,18.95,11,35.33,24.6,50.43,40.38,15.64,16.33,25.3,34.38,36.71,53.53C731.83,284.82,737.9,282.33,736.69,278.05Z"/><path class="cls-7" d="M746.52,307.86c-1.18-2.6-5.64-.72-4.62,1.95,5.27,13.66,8.13,27.23,11.28,41.48.64,2.91,5.42,2.29,5.21-.71C757.34,335.07,752.93,321.92,746.52,307.86Z"/><path class="cls-7" d="M668.33,292c-13.16-22.26-30-39.15-50.06-55.35-14.36-11.58-33-26.26-52.16-27.31-2.69-.14-3.27,4.14-.63,4.71C587,218.69,607,237.15,622.9,251.42,638,265,649.56,281.15,663.34,295.83,665.84,298.49,670.15,295.07,668.33,292Z"/><path class="cls-7" d="M639.31,358.31c-1.87-3.7-7.14-.46-5.48,3.2,11.2,24.7,16.49,49.24,19.26,76.11a3.18,3.18,0,0,0,6.35,0C662.16,409.51,651.86,383,639.31,358.31Z"/><path class="cls-7" d="M592.13,369.67c-5.3-13.21-14.4-21.37-24.64-30.82a1.94,1.94,0,0,0-2.75,2.74c4.14,4.31,8.44,8.45,12.35,13,4.4,5.06,7.33,11.23,10.9,16.86C589.3,373.49,593.12,372.14,592.13,369.67Z"/><path class="cls-2" d="M336.89,626.44c-12.75-10-25.77-19.45-37.76-30.36-13.74-12.49-23.53-27.75-33.88-43a3.18,3.18,0,0,0-5.49,3.21,184.5,184.5,0,0,0,72.18,76.52C335.84,635.12,340.61,629.35,336.89,626.44Z"/><path class="cls-2" d="M386.28,650.58c-6.36-3.71-13.25-5.87-20.33-7.8-4.05-1.11-5.68,5-1.72,6.24,6.67,2.13,13.08,4.9,19.75,7C387.25,657.06,389.16,652.26,386.28,650.58Z"/><path class="cls-2" d="M278.59,659.87c-12-10.14-24.17-20-35-31.48C230,614,221.24,596.55,212.57,578.92c-1.95-3.95-7.53-.49-5.82,3.4,15.17,34.56,34.6,63.26,67.36,83.35C277.64,667.83,281.83,662.61,278.59,659.87Z"/><path class="cls-2" d="M286.1,650.29c-11.12-8.8-22.88-17.17-33.16-26.95-2.44-2.31-5.88,1.18-3.67,3.67,9.91,11.11,21.07,19.58,33.69,27.34C285.42,655.87,288.43,652.13,286.1,650.29Z"/><path class="cls-2" d="M251.87,714.32c-39.65-26.66-70.62-60.88-91.73-104-1.31-2.68-6-.73-4.85,2,18.5,44,50.16,85.72,93,108.06C252.37,722.61,255.67,716.88,251.87,714.32Z"/><path class="cls-2" d="M312.41,750.38c-10.45-8.71-22.71-15.15-34.9-21.1-3.49-1.71-6.55,3.35-3.07,5.25,11.72,6.42,22.46,14.39,34.13,20.84C311.62,757.05,315.27,752.77,312.41,750.38Z"/><path class="cls-2" d="M250.64,777.87c-34.94-18-65.76-35.58-93.61-63.8-2.95-3-7.42,1.54-4.58,4.58,28,30,57.69,49.89,95.74,65C251.55,785,253.8,779.49,250.64,777.87Z"/><path class="cls-2" d="M142.48,687.35c-4.74-2-6.37-8.44-8.3-12.71-1.21-2.67-5.72-.75-4.73,2,1.9,5.34,4.11,16.17,11.82,15.18C143.28,691.56,145,688.41,142.48,687.35Z"/><path class="cls-8" d="M810.93,199c-7.13-12.36-17.81-21.33-26.88-32.12-1.48-1.77-4,.48-3,2.35,3,5.92,7.6,10.59,11.78,15.72,4.68,5.75,9,11.75,13.88,17.35C808.73,204.64,812.45,201.58,810.93,199Z"/><path class="cls-8" d="M830.56,228a54.8,54.8,0,0,0-9.51-13.21c-2.71-2.79-6.64,1.32-4.21,4.22,3.33,4,6.12,8.31,9.55,12.2C828.47,233.58,831.9,230.58,830.56,228Z"/><path class="cls-8" d="M451.09,414.7c-2.42,0-3.08,3.94-.58,4.32,7.28,1.1,13.26,5.88,18.53,10.72,6.82,6.25,8.45,13.85,11.55,22.08.84,2.2,4.82,2.95,5.25,0C488.32,434.87,467.52,414.86,451.09,414.7Z"/><path class="cls-8" d="M485.2,412.17c-1.79-1.08-4,1.62-2.28,2.95a27.28,27.28,0,0,1,8.85,11.6c.57,1.59,3.25,2,3.62,0C496.57,420.29,490.16,415.16,485.2,412.17Z"/></g></g></svg>