<svg id="Object" xmlns="http://www.w3.org/2000/svg" viewBox="0 0 240.4 879.65"><defs><style>.cls-1{fill:#594a42;}.cls-2{fill:#4e4039;}.cls-3{fill:#312620;}.cls-4{fill:#f1626b;}.cls-5{fill:#e94156;}.cls-6{fill:#f37d81;}.cls-7{fill:#6b594f;}</style></defs><title>tune_stick</title><g id="tune_stick"><circle class="cls-1" cx="120.2" cy="120.2" r="120.2" transform="translate(-49.79 120.2) rotate(-45)"/><circle class="cls-2" cx="114.41" cy="127.21" r="59.06" transform="translate(-46.9 184.22) rotate(-67.5)"/><path class="cls-3" d="M71.83,847.61a10.36,10.36,0,0,1-8.63-16.07C102.54,772,165.79,449.38,165.79,400.07c0-16.95-8.13-19.12-25-22.05-12.31-2.13-30.91-5.35-30.91-25.71V120.2a10.36,10.36,0,0,1,20.72,0V352.31c0,2,.58,3,13.72,5.29,15.8,2.74,42.24,7.32,42.24,42.47,0,42.51-61.62,375.72-106,442.9A10.37,10.37,0,0,1,71.83,847.61Z"/><circle class="cls-4" cx="120.2" cy="120.2" r="59.06" transform="translate(-17.7 219.59) rotate(-80.78)"/><circle class="cls-5" cx="116.05" cy="127.45" r="27.98"/><circle class="cls-1" cx="120.2" cy="120.2" r="27.98"/><path class="cls-4" d="M81.17,710.49c5.16-2.41,59.41,15.2,63.55,23.49S94.29,868,83.93,877s-45.59-6.9-51.81-14.5S70.81,715.33,81.17,710.49Z"/><path class="cls-5" d="M74.33,827.71c-13.39,12.13-27.84,23.65-42.11,34.85,6.42,7.63,41.39,23.36,51.71,14.41s64.94-134.7,60.79-143a5.27,5.27,0,0,0-1-1.28c-7.14,11.69-12.52,24.64-20.36,35.95C109.16,789.17,92.88,810.9,74.33,827.71Z"/><path class="cls-6" d="M159.49,99.75c-5.14-13.28-24.34-27.94-39-20.65a2.37,2.37,0,0,0,0,4.06c2.51,1.22,5.2,1.43,7.94,1.89a19.57,19.57,0,0,1,9.29,4.22c5.55,4.29,9.9,9.8,15.35,14.19C155.73,105.57,161,103.72,159.49,99.75Z"/><path class="cls-6" d="M162.78,117.27a2.11,2.11,0,0,0-3.61,0,23.46,23.46,0,0,0-1.73,5.87c-.53,2.52-1.06,4.8-.41,7.35a3,3,0,0,0,5.52.72C164.82,127.48,164.59,121.18,162.78,117.27Z"/><path class="cls-6" d="M91.82,734.2c-1.09-2.79-5.51-3.44-6.33,0-2,8.33-6.6,15.53-9.82,23.44-3.49,8.59-6,17.76-9.94,26.13-1.71,3.68,3,8.14,6,4.63,6.9-8,10.53-16.16,13.61-26.19,1.54-5,3.45-9.76,5.32-14.64C92.27,743.37,93.53,738.53,91.82,734.2Z"/><path class="cls-6" d="M65.47,802.75a3.09,3.09,0,0,0-5.28,0c-.68,1-1.06,2.21-1.66,3.25a20.5,20.5,0,0,0-2.28,5c-.91,3.49,0,7.33,3.72,8.59a3,3,0,0,0,3.77-2.87C63.76,812.55,68.08,807,65.47,802.75Z"/><path class="cls-7" d="M195.5,58.06A140.59,140.59,0,0,0,178.45,41,71.15,71.15,0,0,0,159.72,30c-6.62-2.69-13.09-2.92-19.89-4.64a2.1,2.1,0,0,0-2.35,3.06c2.75,4.27,8,5.5,12.41,7.47a67.27,67.27,0,0,1,18.44,12.66c5.1,4.79,9.11,10.65,13.58,16s7.66,11,13.27,15.41c3.78,3,9.57,1.33,9.7-4C205.06,68.86,199.83,63.21,195.5,58.06Z"/><path class="cls-7" d="M217.15,109.64c-.46-4.36-2.79-7.86-3.73-12s-6.51-3.49-7.79,0c-1.46,4,.22,7.93.19,12,0,2.12-1.13,4.08-1.23,6.22-.15,3.2.94,4.92,3.44,6.79,1.89,1.42,4.48.55,6.08-.78C217.35,119.16,217.56,113.55,217.15,109.64Z"/></g></svg>