<?xml version="1.0" encoding="utf-8"?>
<!-- Generator: Adobe Illustrator 23.0.1, SVG Export Plug-In . SVG Version: 6.00 Build 0)  -->
<svg version="1.1" id="Object" xmlns="http://www.w3.org/2000/svg" xmlns:xlink="http://www.w3.org/1999/xlink" x="0px" y="0px"
	 viewBox="0 0 240.4 879.7" style="enable-background:new 0 0 240.4 879.7;" xml:space="preserve">
<style type="text/css">
	.st0{fill:#480689;}
	.st1{fill:#8D139B;}
	.st2{fill:#2D0F51;}
	.st3{fill:#C459D3;}
	.st4{fill:#58068E;}
	.st5{fill:#A31FA9;}
</style>
<title>tune_stick</title>
<g id="tune_stick">
	<circle class="st0" cx="120.2" cy="120.2" r="120.2"/>
	<circle class="st1" cx="114.4" cy="127.2" r="59.1"/>
	<path class="st2" d="M71.8,847.6c-5.7,0-10.4-4.7-10.3-10.4c0-2,0.6-4,1.7-5.7c39.3-59.5,102.6-382.2,102.6-431.5
		c0-17-8.1-19.1-25-22c-12.3-2.1-30.9-5.4-30.9-25.7V120.2c0-5.7,4.6-10.4,10.4-10.4s10.4,4.6,10.4,10.4v232.1c0,2,0.6,3,13.7,5.3
		c15.8,2.7,42.2,7.3,42.2,42.5c0,42.5-61.6,375.7-106,442.9C78.6,845.9,75.3,847.6,71.8,847.6z"/>
	<circle class="st3" cx="120.2" cy="120.2" r="59.1"/>
	<circle class="st1" cx="116.1" cy="127.4" r="28"/>
	<circle class="st4" cx="120.2" cy="120.2" r="28"/>
	<path class="st3" d="M81.2,710.5c5.2-2.4,59.4,15.2,63.6,23.5S94.3,868,83.9,877s-45.6-6.9-51.8-14.5S70.8,715.3,81.2,710.5z"/>
	<path class="st1" d="M74.3,827.7c-13.4,12.1-27.8,23.7-42.1,34.8c6.4,7.6,41.4,23.4,51.7,14.4s64.9-134.7,60.8-143
		c-0.3-0.5-0.6-0.9-1-1.3c-7.1,11.7-12.5,24.6-20.4,36C109.2,789.2,92.9,810.9,74.3,827.7z"/>
	<path class="st1" d="M159.5,99.8c-5.1-13.3-24.3-27.9-39-20.7c-1.1,0.7-1.5,2.1-0.8,3.3c0.2,0.3,0.5,0.6,0.8,0.8
		c2.5,1.2,5.2,1.4,7.9,1.9c3.4,0.6,6.6,2,9.3,4.2c5.6,4.3,9.9,9.8,15.4,14.2C155.7,105.6,161,103.7,159.5,99.8z"/>
	<path class="st1" d="M162.8,117.3c-0.6-1-1.9-1.3-2.9-0.7c-0.3,0.2-0.5,0.4-0.7,0.7c-0.8,1.9-1.4,3.8-1.7,5.9
		c-0.5,2.5-1.1,4.8-0.4,7.4c0.4,1.6,2.1,2.6,3.7,2.2c0.8-0.2,1.5-0.7,1.9-1.4C164.8,127.5,164.6,121.2,162.8,117.3z"/>
	<path class="st1" d="M91.8,734.2c-1.1-2.8-5.5-3.4-6.3,0c-2,8.3-6.6,15.5-9.8,23.4c-3.5,8.6-6,17.8-9.9,26.1c-1.7,3.7,3,8.1,6,4.6
		c6.9-8,10.5-16.2,13.6-26.2c1.5-5,3.4-9.8,5.3-14.6C92.3,743.4,93.5,738.5,91.8,734.2z"/>
	<path class="st1" d="M65.5,802.8c-0.9-1.5-2.8-1.9-4.2-1c-0.4,0.3-0.8,0.6-1,1c-0.7,1-1.1,2.2-1.7,3.2c-1,1.6-1.7,3.2-2.3,5
		c-0.9,3.5,0,7.3,3.7,8.6c1.6,0.4,3.2-0.5,3.7-2.1c0.1-0.2,0.1-0.5,0.1-0.7C63.8,812.5,68.1,807,65.5,802.8z"/>
	<path class="st5" d="M195.5,58.1c-5.2-6.2-10.9-11.9-17.1-17.1c-5.6-4.6-12-8.3-18.7-11c-6.6-2.7-13.1-2.9-19.9-4.6
		c-1.1-0.3-2.3,0.4-2.6,1.5c-0.1,0.5-0.1,1.1,0.2,1.5c2.8,4.3,8,5.5,12.4,7.5c6.8,3.2,13,7.4,18.4,12.7c5.1,4.8,9.1,10.6,13.6,16
		s7.7,11,13.3,15.4c3.8,3,9.6,1.3,9.7-4C205.1,68.9,199.8,63.2,195.5,58.1z"/>
	<path class="st5" d="M217.2,109.6c-0.5-4.4-2.8-7.9-3.7-12s-6.5-3.5-7.8,0c-1.5,4,0.2,7.9,0.2,12c0,2.1-1.1,4.1-1.2,6.2
		c-0.1,3.2,0.9,4.9,3.4,6.8c1.9,1.4,4.5,0.6,6.1-0.8C217.4,119.2,217.6,113.6,217.2,109.6z"/>
</g>
</svg>
