<?xml version="1.0" encoding="utf-8"?>
<!-- Generator: Adobe Illustrator 23.0.1, SVG Export Plug-In . SVG Version: 6.00 Build 0)  -->
<svg version="1.1" id="triangle_1_" xmlns="http://www.w3.org/2000/svg" xmlns:xlink="http://www.w3.org/1999/xlink" x="0px"
	 y="0px" viewBox="0 0 154.1 135.9" style="enable-background:new 0 0 154.1 135.9;" xml:space="preserve">
<style type="text/css">
	.st0{fill:none;stroke:#FFFFFF;stroke-width:1.5;stroke-miterlimit:10;}
</style>
<path class="st0" d="M139.1,121L77.6,12.7v-0.1h-0.1l-0.1-0.1c-0.1-0.1-0.1-0.1-0.2-0.1S77,12.5,77,12.5L15.5,121.1
	c-0.1,0.1,0,0.2,0,0.2c0.1,0.1,0.1,0.1,0.2,0.1h123.1c0.1,0,0.2-0.1,0.2-0.1C139.1,121.3,139.1,121.2,139.1,121L139.1,121L139.1,121
	L139.1,121z M77.6,13.6l30.6,54c0,0,0,0-0.1,0L77.6,49.9V13.6z M92.8,94.8l15-26.1v34.5l-0.2,0.1L92.8,94.8z M107.3,103.5
	l-29.1,16.8l14.4-25.1L107.3,103.5z M77.6,50.5l30.2,17.4L92.4,94.6l-14.8-8.5V50.5z M77.2,13.4v36.5L46.4,67.6c0,0,0,0-0.1,0
	L77.2,13.4z M62.1,95.1l14.7,25.3l-29.4-16.9L62.1,95.1z M46.9,103.2l-0.2-0.1V68.7l15.1,26L46.9,103.2z M46.8,67.8l30.3-17.5V86
	l-14.9,8.5L46.8,67.8z M46.3,67.7C46.3,67.8,46.3,67.8,46.3,67.7v35.6c0,0.1,0.1,0.2,0.1,0.2l0,0l-30.1,17.3L46.3,67.7z M16.6,121
	l30.3-17.3L76.8,121H16.6z M62.5,94.9l14.8-8.5v0.1l15,8.5l-14.8,25.7L62.5,94.9z M77.8,121l29.9-17.3l30.4,17.3H77.8z M108.1,103.5
	L108.1,103.5c0.1-0.1,0.2-0.2,0.2-0.2V67.8c0,0,0,0,0-0.1l29.9,52.9L108.1,103.5z"/>
</svg>
