<?xml version="1.0" encoding="utf-8"?>
<!-- Generator: Adobe Illustrator 23.0.1, SVG Export Plug-In . SVG Version: 6.00 Build 0)  -->
<svg version="1.1" id="triangle" xmlns="http://www.w3.org/2000/svg" xmlns:xlink="http://www.w3.org/1999/xlink" x="0px" y="0px"
	 viewBox="0 0 154.1 136.3" style="enable-background:new 0 0 154.1 136.3;" xml:space="preserve">
<style type="text/css">
	.st0{fill:none;stroke:#FFFFFF;stroke-width:0.75;stroke-miterlimit:10;}
</style>
<path class="st0" d="M39,135.8l0.1-0.2h0.1l0.1,0.2l0.3-0.2h37.1l0.1,0.1l0.1,0.1l0.1,0l0.1,0l0.1-0.1l0.1-0.1h37.1l0.3,0.2l0.1-0.2
	h38.8c0.1,0,0.2-0.1,0.2-0.1c0.1-0.1,0.1-0.2,0-0.3L96.5,34.4l0-0.1l0,0L77.4,0.8v0h0l-0.1-0.2c-0.1-0.1-0.1-0.1-0.2-0.1
	s-0.2,0.1-0.2,0.1L0.4,135.2c-0.1,0.1,0,0.2,0,0.3c0.1,0.1,0.1,0.1,0.2,0.1h0.6l0.1,0.2l0.3-0.2h37.1L39,135.8z M39.2,112.1
	L21,101.8h36.2L39.2,112.1z M114.4,90.8L96.6,101l18-31.9L114.4,90.8z M114.7,91.3l17.6,10H97.3L114.7,91.3z M95.9,101l0.2-22.3
	l18.1-10.4h0.1L95.9,101z M95.8,78.3l-17.5-9.9h34.7L95.8,78.3z M95.5,78.8l-0.2,21.3L77.6,68.7v0L95.5,78.8z M95.1,100.7l-17.6-10
	l0.2-20.9L95.1,100.7z M77.1,91.3l17.6,10H59.7L77.1,91.3z M58.7,101.1L77,68.7l0,0.1l-0.2,21.9L58.7,101.1z M77.2,67.2l0.2-21.8
	l18-10.3L77.2,67.2z M77.1,44.8L59.7,35h34.7L77.1,44.8z M76.9,45.3l-0.2,21.5L58.6,35L76.9,45.3z M58.3,100.7l0.2-21.9l17.9-10.3
	L58.3,100.7z M58.3,78.3l-17.5-9.9h34.7L58.3,78.3z M58,78.8l-0.2,21.7l-18.1-32L58,78.8z M57.4,100.9L39.4,90.8l0.2-21.3
	L57.4,100.9z M39.2,134.4l0.2-21.8l17.9-10.2L39.2,134.4z M39.6,135L58,102.4l-0.2,22.2L39.6,135z M40.6,135.1l17.4-10l17.6,10H40.6
	z M76.2,134.7l-17.9-10.1l0.2-21.7l17.7,31.4L76.2,134.7z M76.3,133.1l-17.1-30.3l17.3,9.8L76.3,133.1z M76.7,112.1l-18.1-10.2
	l0.1,0h36L76.7,112.1z M77,134.5l-0.2-0.3l0.2-21.5l18.2-10.4L77,134.5z M95.5,102.8l-0.2,21.8l-17.9,10.2L95.5,102.8z M78.2,135.1
	l17.4-10l17.6,10H78.2z M114.4,135.1L114.4,135.1l-18.5-10.5l0.2-22.1L114.4,135.1L114.4,135.1z M114.4,133.8l-18.1-32l18.2,10.3
	L114.4,133.8z M97.5,101.8h34.7l-17.3,9.9L97.5,101.8z M115.2,112.2l17.9-10.3L115,134.1L115.2,112.2z M134.3,102.2l18.4,32.5
	l-18.6-10.5L134.3,102.2z M152.2,135.1h-36.5l18.2-10.4L152.2,135.1z M133.5,124.2l-18.1,10.4l18.3-32.5L133.5,124.2z M115.2,68.5
	l18.4,32.5l-0.3,0.1L115,90.8L115.2,68.5z M96.5,35.6l18.3,32.2l-0.1-0.1l-0.1-0.2l-0.1,0.1L96.3,57.4L96.5,35.6z M113.7,67.8H78.6
	l17.4-10L113.7,67.8z M95.7,57.4L77.6,67.7l18.4-32.4L95.7,57.4z M77.4,1.9l18.3,32.3L77.2,23.7L77.4,1.9z M76.9,24.2l18,10.2H59.1
	L76.9,24.2z M76.8,1.6l-0.2,22.2L58.4,34.2L76.8,1.6z M58.5,36l17.9,31.5L58.3,57.4L58.5,36z M75.7,67.8H40.6l17.4-10L75.7,67.8z
	 M57.9,35L57.9,35l-0.2,22.4L39.6,67.7l-0.2-0.1L57.9,35z M56.8,101.2H21.7l17.4-10L56.8,101.2z M39,68.3l0.1,0.1l-0.2,22.3
	l-18.3,10.5h-0.2L39,68.3z M1.5,135.1H1.2L20,101.9l0,0l-0.2,22.7L1.5,135.1z M2.6,135.1l17.4-10l17.6,10H2.6z M38.7,135l-18.3-10.4
	l0.2-22.1l18.1,32.1L38.7,135z M21.3,102.6l17.6,9.9l-0.2,20.9L21.3,102.6z"/>
</svg>
