<?xml version="1.0" encoding="utf-8"?>
<!-- Generator: Adobe Illustrator 23.0.1, SVG Export Plug-In . SVG Version: 6.00 Build 0)  -->
<svg version="1.1" id="triangle" xmlns="http://www.w3.org/2000/svg" xmlns:xlink="http://www.w3.org/1999/xlink" x="0px" y="0px"
	 viewBox="0 0 154.1 135.9" style="enable-background:new 0 0 154.1 135.9;" xml:space="preserve">
<style type="text/css">
	.st0{fill:none;stroke:#FFFFFF;stroke-width:1.5;stroke-miterlimit:10;}
</style>
<path class="st0" d="M45.3,122.6l0.1-0.2h0.1l0.1,0.2l0.3-0.2h30.9l0.1,0.1l0.1,0.1h0h0.1l0.1-0.1l0.1-0.1h30.9l0.3,0.2l0.1-0.2
	h32.3c0.1,0,0.2-0.1,0.2-0.1c0.1-0.1,0.1-0.2,0-0.3L93.3,38l0,0l0,0l-16-27.9l0,0l0,0l-0.1-0.2c-0.1-0.1-0.1-0.1-0.2-0.1
	s-0.2,0.1-0.2,0.1L13.2,122.1c-0.1,0.1,0,0.2,0,0.3c0.1,0.1,0.1,0.1,0.2,0.1h0.5l0.1,0.2l0.3-0.2L45.3,122.6L45.3,122.6z
	 M45.5,102.9l-15.2-8.6h30.2L45.5,102.9z M108.2,85.1l-14.8,8.5l15-26.6L108.2,85.1z M108.4,85.5l14.7,8.3H93.9L108.4,85.5z
	 M92.8,93.6L92.9,75l15.1-8.7h0.1L92.8,93.6z M92.7,74.7l-14.6-8.3H107L92.7,74.7z M92.4,75.1l-0.2,17.8L77.5,66.7l0,0L92.4,75.1z
	 M92.1,93.4L77.4,85l0.2-17.4L92.1,93.4z M77.1,85.5l14.7,8.3H62.6L77.1,85.5z M61.8,93.7l15.3-27v0.1L76.8,85L61.8,93.7z
	 M77.2,65.4l0.2-18.2l15-8.6L77.2,65.4z M77.1,46.8l-14.5-8.2h28.9L77.1,46.8z M76.9,47.2l-0.2,17.9l-15-26.5L76.9,47.2z M61.4,93.4
	l0.2-18.3l14.9-8.6L61.4,93.4z M61.4,74.7l-14.6-8.3h28.9L61.4,74.7z M61.2,75.1L61,93.2L45.9,66.5L61.2,75.1z M60.7,93.5l-15-8.4
	l0.2-17.8L60.7,93.5z M45.5,121.4l0.2-18.2l14.9-8.5L45.5,121.4z M45.8,121.9l15.3-27.2L61,113.3L45.8,121.9z M46.7,122l14.5-8.3
	l14.7,8.3H46.7z M76.3,121.7l-14.9-8.4l0.2-18.1l14.8,26.2L76.3,121.7L76.3,121.7z M76.4,120.4L62.2,95.1l14.4,8.2L76.4,120.4z
	 M76.8,102.9l-15.1-8.5h0.1h30L76.8,102.9z M77,121.5l-0.2-0.3l0.2-17.9l15.2-8.7L77,121.5z M92.4,95.1l-0.2,18.2l-14.9,8.5
	L92.4,95.1z M78,122l14.5-8.3l14.7,8.3H78z M108.2,122L108.2,122l-15.4-8.8L93,94.8L108.2,122L108.2,122z M108.2,120.9L93.1,94.3
	l15.2,8.6L108.2,120.9z M94.1,94.3H123l-14.4,8.3L94.1,94.3z M108.8,102.9l14.9-8.6l-15.1,26.8L108.8,102.9z M124.8,94.6l15.3,27.1
	l-15.5-8.8L124.8,94.6z M139.7,122h-30.4l15.2-8.7L139.7,122z M124.1,112.9l-15.1,8.7l15.3-27.1L124.1,112.9z M108.8,66.5l15.3,27.1
	l-0.3,0.1l-15.3-8.6L108.8,66.5z M93.3,39.1l15.3,26.8l-0.1-0.1l-0.1-0.2l-0.1,0.1l-15.2-8.5L93.3,39.1z M107.6,65.9H78.3l14.5-8.3
	L107.6,65.9z M92.6,57.3l-15.1,8.6l15.3-27L92.6,57.3z M77.3,11l15.3,26.9l-15.4-8.8L77.3,11z M76.9,29.6l15,8.5H62.1L76.9,29.6z
	 M76.8,10.8l-0.2,18.5L61.4,38L76.8,10.8z M61.6,39.4l14.9,26.3l-15.1-8.4L61.6,39.4z M75.9,65.9H46.7l14.5-8.3L75.9,65.9z
	 M61.1,38.6L61.1,38.6l-0.2,18.7l-15.1,8.6l-0.2-0.1L61.1,38.6z M60.2,93.8H30.9l14.5-8.3L60.2,93.8z M45.3,66.3L45.3,66.3V85
	L30,93.8h-0.2L45.3,66.3z M14.1,122h-0.3l15.7-27.7l0,0l-0.2,18.9L14.1,122z M15,122l14.5-8.3l14.7,8.3H15z M45.1,121.9l-15.3-8.7
	L30,94.9l15.1,26.8V121.9z M30.6,94.9l14.7,8.3l-0.2,17.4L30.6,94.9z"/>
</svg>
