<?xml version="1.0" encoding="utf-8"?>
<!-- Generator: Adobe Illustrator 23.0.1, SVG Export Plug-In . SVG Version: 6.00 Build 0)  -->
<svg version="1.1" id="Layer_1" xmlns="http://www.w3.org/2000/svg" xmlns:xlink="http://www.w3.org/1999/xlink" x="0px" y="0px"
	 viewBox="0 0 154.1 135.9" style="enable-background:new 0 0 154.1 135.9;" xml:space="preserve">
<style type="text/css">
	.st0{fill:none;stroke:#FFFFFF;stroke-width:0.75;stroke-miterlimit:10;}
</style>
<path class="st0" d="M153.5,135L77.4,0.8V0.7h-0.1l-0.1-0.1c-0.1-0.1-0.1-0.1-0.2-0.1c-0.1,0-0.2,0.1-0.2,0.1L0.4,135.1
	c-0.1,0.1,0,0.2,0,0.3c0.1,0.1,0.1,0.1,0.2,0.1h152.6c0.1,0,0.2-0.1,0.2-0.1c0.1-0.1,0.1-0.2,0-0.3L153.5,135L153.5,135L153.5,135z
	 M77.4,1.9l37.9,66.9c0,0,0,0-0.1,0L77.4,46.9V1.9z M96.2,102.5l18.6-32.3v42.7l-0.2,0.1L96.2,102.5z M114.1,113.3L78,134.1
	L95.9,103L114.1,113.3z M77.4,47.6l37.4,21.6l-19.1,33.1L77.4,91.8V47.6z M76.8,1.6v45.2l-38.1,22c0,0,0,0-0.1,0L76.8,1.6z
	 M58.1,102.9l18.2,31.4l-36.4-21L58.1,102.9z M39.3,112.9l-0.2-0.1V70.2l18.7,32.2L39.3,112.9z M39.2,69.1l37.6-21.7v44.2
	l-18.5,10.5L39.2,69.1z M38.6,68.9C38.6,69,38.6,69,38.6,68.9l0,44.1c0,0.1,0.1,0.2,0.1,0.2l0,0L1.4,134.6L38.6,68.9z M1.8,135
	l37.5-21.4l37,21.4H1.8z M58.6,102.6L77,92.1l0,0.1l18.5,10.5l-18.3,31.8L58.6,102.6z M77.6,135l37-21.4l37.7,21.4H77.6z
	 M115.2,113.3L115.2,113.3c0.1-0.1,0.2-0.2,0.2-0.3V69c0,0,0,0,0-0.1l37.1,65.5L115.2,113.3z"/>
</svg>
